<?xml version="1.0" encoding="UTF-8" standalone="no"?><svg width="166" height="115" viewBox="0 0 166 115" fill="none" xmlns="http://www.w3.org/2000/svg">
<path d="M128.054 41.9226L128.199 41.9375L133.718 42.4184C132.444 40.1786 131.243 38.0535 130.042 36.018C137.582 35.1734 140.069 25.4147 133.863 21.0348C135.312 19.231 135.957 17.223 135.957 15.2747C135.957 9.64417 130.629 4.52436 124.202 6.35802L122.986 6.69187C122.986 2.459 119.589 0 116.179 0C113.704 0 111.232 1.29552 110.046 4.11577L106.927 11.5351L106.824 11.8266C96.8243 6.16868 87.4117 5.51344 83.094 5.51344C79.9899 5.51344 74.7044 5.94944 68.6742 7.82545C65.5124 8.81453 62.7443 9.80361 59.3643 11.7245L59.2615 11.5351L56.1424 4.11577C53.3015 -2.61845 43.2019 -0.597933 43.2019 6.68938L41.9858 6.35553C33.3329 3.88158 26.6733 14.0365 32.3224 21.0323C29.9078 22.7339 28.8096 25.2502 28.8096 27.7391C28.8096 31.6082 31.4875 35.4201 36.0133 36.0006C34.7972 38.036 33.5836 40.1761 32.2948 42.4308L37.9891 41.9351L38.1345 41.9201C38.0618 42.0521 37.9891 42.1667 37.9439 42.2988C35.0454 47.8272 32.6885 54.255 30.7277 61.3704L40.1128 57.9945C41.4442 65.0651 44.1973 89.9516 48.3996 101.198C48.3996 101.198 47.8881 88.9201 50.0821 74.5922C50.917 69.1659 52.1306 63.4507 53.9183 57.9945C55.2071 54.0681 56.7742 50.2563 58.7199 46.8082C59.3944 45.5874 61.2674 46.138 61.2223 47.5207L60.9289 55.5654L73.1674 46.6338L76.5648 51.0112L81.8779 42.6326C82.4195 41.7756 83.7083 41.803 84.1922 42.7049L88.7732 50.9539L93.0182 46.6338L105.272 55.5654L104.963 47.5207C104.921 46.138 106.794 45.5849 107.481 46.8082C109.414 50.2563 110.993 54.0656 112.267 57.9945C114.052 63.4482 115.269 69.1659 116.103 74.5922C118.3 88.9201 117.786 101.198 117.786 101.198C121.988 89.9541 124.285 65.0651 125.619 57.9945L135.458 61.3704C133.51 54.2575 131.14 47.8272 128.254 42.2988C128.196 42.1692 128.121 42.0521 128.049 41.9201L128.054 41.9226ZM68.0022 35.886C64.9131 37.2961 61.5031 36.454 60.4049 34.0099C59.2916 31.5659 60.9014 28.4392 63.9904 27.0266C67.0795 25.6165 70.477 26.4585 71.5877 28.9026C72.701 31.3467 71.0913 34.4733 68.0022 35.886ZM105.786 34.0099C105.038 35.6692 103.223 36.5835 101.175 36.5711C100.209 36.5561 99.1687 36.3394 98.1884 35.8885C95.0993 34.4783 93.4895 31.3491 94.6028 28.9051C94.9238 28.2075 95.4227 27.6395 96.0521 27.2334C97.6192 26.172 99.9911 26.025 102.2 27.0291C105.289 28.4392 106.899 31.5684 105.786 34.0124V34.0099Z" fill="black"/>
<path d="M0 85.0734L19.8583 85.7685L12.2334 101.487L26.4201 99.8623L25.7105 115L37.8411 91.0876C36.3994 83.1127 35.2786 75.1403 34.2255 67.1753L0 85.0734Z" fill="black"/>
<path d="M146.142 85.7685L166 85.0734L131.772 67.1753C130.719 75.1378 129.601 83.1102 128.156 91.0876L140.287 115L139.577 99.8623L153.764 101.487L146.139 85.7685H146.142Z" fill="black"/>
</svg>
