<?xml version="1.0" encoding="UTF-8" standalone="no"?><svg width="218" height="435" viewBox="0 0 218 435" fill="none" xmlns="http://www.w3.org/2000/svg">
<path d="M0.0242675 247.219C1.08181 225.692 8.24972 203.848 20.7621 184.041L59.2063 123.198C58.8648 123.128 58.5159 123.058 58.1615 122.989C57.4969 122.868 56.9461 122.407 56.6928 121.78C56.4449 121.154 56.5349 120.438 56.9333 119.893L68.7058 103.776C68.2633 100.75 67.8502 97.5173 67.4701 94.2075L57.306 113.217C56.9571 113.863 56.2796 114.255 55.5654 114.255C55.3946 114.255 55.2165 114.237 55.0403 114.186C54.1535 113.938 53.5513 113.116 53.5972 112.193L54.205 99.2089L42.2489 100.581C41.5328 100.664 40.8296 100.354 40.4128 99.7648C39.9942 99.1832 39.9319 98.4163 40.2477 97.7723L46.5984 84.5973L29.6539 84.0028C28.7616 83.9716 28.0015 83.3442 27.7977 82.4708C27.6012 81.5975 28.0125 80.7058 28.8038 80.2875L62.2889 62.6761L56.5587 64.6503C55.8684 64.8906 55.1028 64.72 54.5704 64.2264C54.0379 63.7274 53.8231 62.9733 54.0195 62.2651C55.7729 55.8418 57.7558 50.2936 60.0361 45.4004L57.8458 45.5894C57.1169 45.6518 56.4156 45.3105 56.0153 44.6977C55.6224 44.0831 55.5966 43.2997 55.9583 42.6594L56.0281 42.5383C56.8268 41.1146 57.6052 39.7422 58.3708 38.3937C55.4387 37.1919 53.197 34.6729 52.3671 31.4511C51.4418 27.8826 52.4424 24.2242 54.9192 21.6684C52.8225 17.9788 52.9565 13.5186 55.3947 9.84736C58.0423 5.85503 62.6451 4.03866 67.2369 5.12664C68.6433 2.2278 71.4157 0.305018 74.7481 0.0389842C78.7561 -0.276587 82.3601 1.93057 83.9244 5.65871L85.7238 9.94277C96.2863 4.71017 106.127 4.34873 108.564 4.34873C111.305 4.34873 116.903 4.6643 123.654 6.77789C126.364 7.63286 128.96 8.67682 131.429 9.90424L133.208 5.65871C134.771 1.93608 138.38 -0.278421 142.383 0.0444884C145.708 0.310522 148.493 2.2333 149.894 5.13215C154.486 4.04967 159.089 5.86053 161.736 9.85287C164.18 13.5223 164.314 17.9843 162.212 21.6739C164.694 24.2297 165.687 27.8881 164.769 31.4566C163.947 34.6325 161.755 37.1259 158.88 38.3533C159.678 39.733 160.493 41.1751 161.343 42.6814C161.705 43.3199 161.679 44.0996 161.286 44.7124C160.888 45.3271 160.185 45.6738 159.456 45.6041L157.088 45.4023C159.373 50.2936 161.349 55.8436 163.11 62.267C163.306 62.9752 163.084 63.7347 162.546 64.2411C162.008 64.7347 161.23 64.8924 160.539 64.6393L154.258 62.3734L188.333 80.2875C189.124 80.7058 189.535 81.5975 189.333 82.4708C189.137 83.3442 188.377 83.9698 187.484 84.0028L170.54 84.5973L176.891 97.7723C177.201 98.4182 177.139 99.1832 176.72 99.7648C176.301 100.354 175.605 100.664 174.884 100.581L162.928 99.2089L163.536 112.193C163.58 113.118 162.977 113.94 162.085 114.186C161.914 114.237 161.736 114.255 161.566 114.255C160.85 114.255 160.179 113.863 159.825 113.217L149.795 94.4607C149.402 97.587 148.991 100.649 148.548 103.522L160.51 119.893C160.908 120.438 160.998 121.152 160.75 121.78C160.497 122.405 159.946 122.868 159.282 122.989C158.826 123.077 158.389 123.167 157.965 123.255L196.371 184.041C208.878 203.846 216.053 225.69 217.105 247.219C217.257 250.358 216.282 253.255 214.501 255.875C214.806 257.141 214.97 258.438 214.97 259.779C214.97 264.867 212.55 270.221 208.327 274.479C203.988 278.846 198.416 281.484 192.647 281.908C191.021 282.029 189.462 282.091 187.975 282.091C179.654 282.091 173.454 280.218 169.11 276.415C166.545 274.175 164.69 271.27 163.563 267.738C161.639 266.865 159.902 265.816 158.371 264.586L159.061 274.408L161.474 288.094L161.929 288.652C163.708 290.804 163.974 293.815 162.671 296.252L162.867 297.417C162.88 297.455 162.893 297.492 162.906 297.538C162.906 297.538 162.911 297.543 162.911 297.551L168.269 314.813C168.838 316.648 168.08 318.565 166.516 319.529L176.786 381.744C176.887 382.358 176.698 382.979 176.266 383.426C175.842 383.868 175.235 384.09 174.62 384.028C171.269 383.656 167.881 383.413 164.463 383.307C164.711 384.155 165.014 385.022 165.388 385.927C167.971 387.294 170.606 389.692 171.62 392.754C174.792 393.994 178.541 396.994 179.452 401.012C179.458 401.025 179.457 401.03 179.457 401.043C182.232 402.162 185.391 404.599 186.721 407.877C187.057 407.929 187.373 407.986 187.683 408.061C187.955 408.118 188.234 408.182 188.518 408.257C188.536 408.263 188.562 408.27 188.581 408.276C188.917 408.376 189.253 408.472 189.594 408.598C189.791 408.668 189.987 408.738 190.183 408.813C190.202 408.819 190.228 408.831 190.246 408.839L190.486 408.94C190.675 409.015 190.859 409.098 191.045 409.18C191.311 409.307 191.57 409.439 191.849 409.586C193.679 410.573 195.244 411.883 196.49 413.477C198.212 415.66 199.244 418.267 199.479 421.014C199.549 421.786 199.549 422.552 199.479 423.285C199.51 423.443 199.536 423.608 199.523 423.779L199.448 433.042C199.448 433.567 199.233 434.068 198.853 434.435C198.486 434.796 197.992 434.998 197.48 434.998H197.449L168.675 434.505L123.36 433.828C122.277 433.809 121.41 432.923 121.423 431.841L121.498 422.843C121.473 422.691 121.46 422.539 121.473 422.388L123.955 388.022C122.398 388.415 120.834 388.831 119.27 389.275C119.091 389.327 118.908 389.351 118.731 389.351C118.326 389.351 117.922 389.224 117.586 388.984C117.097 388.635 116.795 388.085 116.763 387.485L113.919 332.97L112.957 331.515L112.919 331.458L112.684 331.104C110.974 328.522 111.329 325.117 113.4 322.934L110.372 264.887C109.966 264.893 109.568 264.887 109.182 264.887H108.277L105.25 322.934C107.321 325.117 107.675 328.521 105.966 331.104L105.769 331.396C105.769 331.396 105.751 331.434 105.738 331.452L104.737 332.972L101.893 387.486C101.855 388.088 101.557 388.639 101.064 388.985C100.728 389.226 100.329 389.352 99.9179 389.352C99.7398 389.352 99.5562 389.327 99.3799 389.277C97.1639 388.644 94.9478 388.068 92.7372 387.53L95.2581 422.39C95.271 422.542 95.2581 422.695 95.2324 422.845L95.3077 431.842C95.3205 432.925 94.4521 433.811 93.3707 433.829L48.0562 434.506L19.2823 435H19.2511C18.7388 435 18.2449 434.798 17.8778 434.437C17.4977 434.07 17.2828 433.569 17.2828 433.044L17.2075 423.781C17.1947 423.61 17.2131 423.445 17.2516 423.287C17.1892 422.553 17.1892 421.788 17.2516 421.016C17.4866 418.269 18.5185 415.662 20.2407 413.479C21.4947 411.884 23.0589 410.574 24.8894 409.587C25.1685 409.442 25.4219 409.308 25.6936 409.182C25.8772 409.099 26.0608 409.017 26.2517 408.942L26.4922 408.841C26.4922 408.841 26.5363 408.822 26.5547 408.815C26.7511 408.74 26.9476 408.67 27.1367 408.6C27.4855 408.474 27.8142 408.378 28.1557 408.277C28.1741 408.272 28.1997 408.265 28.2181 408.259C28.4972 408.184 28.7817 408.12 29.0535 408.063C29.3638 407.988 29.6796 407.931 30.01 407.879C31.3393 404.601 34.5064 402.166 37.2788 401.045V401.014C38.1968 396.996 41.9386 393.996 45.1186 392.756C46.1321 389.694 48.7667 387.296 51.35 385.929C51.7117 385.055 52.0091 384.213 52.2496 383.397C49.4883 383.523 46.7526 383.725 44.0372 384.03C43.4221 384.092 42.8143 383.872 42.3902 383.428C41.9661 382.979 41.7697 382.358 41.8707 381.746L52.1798 319.321C50.6853 318.081 50.0134 316.032 50.6156 314.089L50.8047 313.481C50.8047 313.481 50.8047 313.45 50.8175 313.437L55.7436 297.554L55.749 297.541C55.7619 297.497 55.7803 297.459 55.7931 297.42L55.9896 296.25C54.686 293.821 54.9504 290.801 56.724 288.656L57.1866 288.098L59.5936 274.411L60.3849 263.153C58.4847 265.001 56.1988 266.538 53.5642 267.742C52.4368 271.274 50.5826 274.178 48.0177 276.418C43.6737 280.222 37.4734 282.095 29.1526 282.095C27.6581 282.095 26.1011 282.033 24.4726 281.912C18.7039 281.488 13.1316 278.849 8.79314 274.483C4.57032 270.224 2.15044 264.871 2.15044 259.783C2.15044 258.442 2.31568 257.145 2.61864 255.879C0.845036 253.259 -0.135413 250.36 0.0151299 247.223H0.0206919L0.0242675 247.219Z" fill="black"/>
<path d="M61.9548 385.054C62.2027 384.516 62.4432 383.966 62.6635 383.402C62.7516 383.188 62.847 382.971 62.9425 382.764H56.4834C56.3567 383.34 56.2043 383.929 56.0336 384.523C57.5097 384.334 59.6433 384.276 61.9548 385.055V385.054Z" fill="#2E2E2E"/>
<path d="M56.5404 393.506V393.493C56.5404 393.493 56.5587 393.48 56.5587 393.475C56.5715 393.457 56.5845 393.444 56.5973 393.424L57.7503 391.899C57.7503 391.899 57.7815 391.86 57.7943 391.837C58.4773 391.002 59.1236 390.116 59.7075 389.198C59.7258 389.167 59.7516 389.128 59.7773 389.097C59.7957 389.072 59.8084 389.04 59.8286 389.015C59.9113 388.883 59.9939 388.736 60.0765 388.604C58.3672 388.18 56.7259 388.351 55.3342 388.629C55.3158 388.629 55.2955 388.635 55.2771 388.642C53.7514 388.896 51.541 390.141 50.0979 391.864C51.921 391.838 54.2142 392.169 56.5441 393.51L56.5404 393.506Z" fill="#2E2E2E"/>
<path d="M43.2165 399.632C43.3377 399.645 43.457 399.663 43.5782 399.689C43.8004 399.72 44.0207 399.759 44.2373 399.797C44.5035 399.841 44.801 399.898 45.1168 399.968C45.1351 399.968 45.1553 399.974 45.1681 399.981C46.3524 400.247 47.4852 400.606 48.5299 401.038C49.0935 401.272 49.6388 401.531 50.1639 401.803L53.3806 397.676L54.1334 396.684C51.8292 395.526 49.5617 395.722 47.7128 396.089C47.6945 396.089 47.6743 396.095 47.6559 396.102C46.066 396.368 43.736 397.704 42.2985 399.531C42.6032 399.557 42.8804 399.594 43.1467 399.627H43.2036L43.2165 399.632Z" fill="#2E2E2E"/>
<path d="M46.7379 421.185C46.7251 421.102 46.7067 421.027 46.6938 420.95C46.6553 420.748 46.6185 420.552 46.5616 420.355C46.5359 420.26 46.5048 420.166 46.4791 420.076C46.4277 419.898 46.3652 419.715 46.3009 419.539C46.2623 419.443 46.2256 419.343 46.1871 419.247C46.1173 419.077 46.042 418.906 45.9594 418.735C45.9154 418.64 45.864 418.546 45.8144 418.451C45.7263 418.28 45.6307 418.115 45.5298 417.952C45.4784 417.864 45.4215 417.774 45.3646 417.686C45.2508 417.515 45.1296 417.345 45.0102 417.174C44.9533 417.099 44.9019 417.022 44.8449 416.946C44.6926 416.757 44.5347 416.567 44.3695 416.383C44.3254 416.339 44.2869 416.288 44.2483 416.244C44.0335 416.009 43.8058 415.781 43.5579 415.561C43.5451 415.548 43.5322 415.536 43.5193 415.523C43.2145 415.244 42.9043 414.985 42.6014 414.763L42.5958 414.758C41.6393 414.037 40.545 413.422 39.3351 412.928C38.4924 412.58 37.5873 412.295 36.638 412.081C36.6123 412.081 36.5811 412.068 36.5554 412.062C36.3277 412.011 36.1001 411.962 35.8596 411.923C35.6503 411.884 35.4611 411.853 35.2775 411.828C35.2335 411.828 35.195 411.815 35.1509 411.809C35.1068 411.804 35.0628 411.796 35.0187 411.791L34.9232 411.778C34.4862 411.716 34.018 411.67 33.4287 411.639C32.9605 411.613 32.4978 411.607 32.0424 411.639H31.9673C31.936 411.639 31.8975 411.639 31.8662 411.644H31.7782C31.7267 411.65 31.6771 411.657 31.6202 411.657C31.5321 411.657 31.4494 411.67 31.3613 411.675C30.8362 411.727 30.3607 411.802 29.9109 411.91C29.6759 411.962 29.4611 412.011 29.2463 412.068C28.98 412.143 28.7211 412.226 28.4678 412.316C28.3282 412.367 28.163 412.424 28.0051 412.486L27.7775 412.582C27.7775 412.582 27.7462 412.595 27.7334 412.6C27.6012 412.657 27.4672 412.714 27.335 412.771C27.1331 412.866 26.9365 412.967 26.7401 413.068C25.4035 413.789 24.2523 414.75 23.3398 415.915C22.0932 417.497 21.3459 419.377 21.1807 421.344C21.1678 421.458 21.1623 421.572 21.155 421.68L46.7434 421.262C46.7434 421.262 46.7434 421.21 46.7379 421.187H46.7434L46.7379 421.185Z" fill="#D6D6D6"/>
<path d="M49.099 425.159C49.0108 425.171 48.9283 425.177 48.8328 425.184L45.7556 425.241L21.1679 425.652L21.2119 431.032L48.0048 430.577L91.3621 429.925L91.318 424.533L56.4706 425.039L49.1119 425.166L49.099 425.16V425.159Z" fill="#D6D6D6"/>
<path d="M95.2379 422.843C95.2636 422.691 95.2765 422.539 95.2637 422.388L91.9018 375.865C91.8266 374.853 91.0023 374.062 89.9888 374.036L74.6637 373.638C71.2762 373.346 67.9071 375.22 65.2339 378.821H54.8292C53.8414 378.821 53.0061 379.555 52.8721 380.529C52.6444 382.232 52.1431 383.997 51.3463 385.927C48.7631 387.288 46.1284 389.686 45.1149 392.754C41.9368 393.994 38.1931 396.994 37.2751 401.012V401.043C34.5009 402.162 31.3411 404.599 30.0118 407.877C29.6832 407.929 29.36 407.991 29.0553 408.061C28.7762 408.118 28.4971 408.188 28.2199 408.257C28.1942 408.257 28.1759 408.27 28.1575 408.276C27.8215 408.376 27.4855 408.477 27.144 408.599C26.9476 408.668 26.7511 408.738 26.562 408.813C26.5436 408.819 26.518 408.832 26.4996 408.839L26.2591 408.94C26.07 409.015 25.8863 409.098 25.7009 409.18C25.4292 409.307 25.1759 409.433 24.8968 409.578C23.0663 410.565 21.502 411.875 20.248 413.47C18.5258 415.658 17.494 418.26 17.259 421.007C17.1966 421.785 17.1966 422.544 17.259 423.278C17.2278 423.436 17.2075 423.601 17.2149 423.772L17.2902 433.035C17.2902 433.56 17.5049 434.061 17.885 434.428C18.2522 434.789 18.7461 434.985 19.2583 434.985H19.2896L48.0636 434.497L93.3726 433.82C94.4558 433.802 95.3224 432.916 95.3169 431.833L95.2416 422.836L95.2361 422.841L95.2379 422.843ZM91.3566 429.918L47.9992 430.569L21.2064 431.024L21.1623 425.645L45.7502 425.234L48.8273 425.177C48.9155 425.177 49.0054 425.164 49.0935 425.151L56.4522 425.025L91.2998 424.518L91.3438 429.91L91.3566 429.916V429.918ZM21.1807 421.344C21.3459 419.37 22.0932 417.497 23.3398 415.915C24.2578 414.75 25.4035 413.789 26.7401 413.068C26.9365 412.967 27.1257 412.866 27.335 412.771C27.4672 412.708 27.6012 412.65 27.7334 412.6C27.7462 412.6 27.7646 412.587 27.7775 412.582L28.0051 412.486C28.163 412.424 28.3209 412.365 28.4678 412.316C28.7211 412.228 28.98 412.15 29.2463 412.068C29.4611 412.011 29.6777 411.96 29.9109 411.91C30.3607 411.809 30.8362 411.732 31.3613 411.675C31.4494 411.67 31.5321 411.662 31.6202 411.657C31.6716 411.657 31.7212 411.657 31.7782 411.644H31.8662C31.8975 411.639 31.936 411.631 31.9673 411.631H32.0425C32.4979 411.6 32.9678 411.606 33.4287 411.631C34.018 411.67 34.4862 411.714 34.9232 411.771L35.0187 411.784C35.0628 411.784 35.1068 411.796 35.1509 411.802C35.195 411.807 35.2335 411.815 35.2775 411.82C35.4611 411.846 35.6503 411.877 35.8596 411.916C36.0946 411.954 36.3222 411.998 36.5554 412.055C36.5811 412.055 36.6068 412.068 36.638 412.073C37.5873 412.295 38.4942 412.58 39.3351 412.921C40.5505 413.415 41.6466 414.035 42.5958 414.75L42.6014 414.756C42.9062 414.983 43.209 415.237 43.5193 415.515C43.5322 415.528 43.5451 415.541 43.5579 415.554C43.7985 415.776 44.0262 416.003 44.2483 416.236C44.2924 416.28 44.3309 416.332 44.3695 416.376C44.5347 416.559 44.6926 416.748 44.8449 416.939C44.9019 417.014 44.9589 417.091 45.0103 417.167C45.137 417.337 45.2581 417.502 45.3646 417.678C45.4215 417.767 45.4729 417.856 45.5298 417.944C45.6307 418.11 45.7263 418.28 45.8144 418.444C45.8658 418.539 45.9099 418.633 45.9594 418.728C46.042 418.899 46.1173 419.069 46.1871 419.24C46.2256 419.335 46.2697 419.429 46.3009 419.532C46.3633 419.71 46.4222 419.886 46.4791 420.069C46.5048 420.165 46.536 420.253 46.5617 420.348C46.6131 420.544 46.6571 420.746 46.6938 420.942C46.7067 421.025 46.7251 421.1 46.7379 421.177C46.7379 421.203 46.738 421.229 46.7435 421.253L21.155 421.671C21.155 421.557 21.1678 421.449 21.1807 421.335L21.1751 421.341L21.1807 421.344ZM34.6056 407.764C36.0432 405.929 38.373 404.601 39.963 404.335C39.9814 404.335 40.0016 404.329 40.0199 404.322C42.1038 403.911 44.7312 403.714 47.3346 405.435L43.3633 410.523C42.572 410.055 41.7238 409.637 40.8297 409.27C39.7777 408.839 38.6448 408.485 37.4606 408.213C37.4606 408.213 37.4294 408.213 37.4092 408.208C37.0989 408.138 36.8015 408.081 36.5298 408.03C36.315 407.991 36.0927 407.955 35.8706 407.922C35.7494 407.903 35.6356 407.883 35.5163 407.87H35.4538C35.1876 407.826 34.9031 407.795 34.6056 407.762V407.764ZM74.3588 377.566C74.4029 377.566 74.447 377.572 74.491 377.572L88.0922 377.926L91.1767 420.588L56.3935 421.095L50.7202 421.19C50.3916 418.141 48.9099 415.236 46.5029 412.906L56.5202 400.073L59.7314 395.827C59.7314 395.827 59.7626 395.789 59.7754 395.77L60.8844 394.308C61.65 393.372 62.3661 392.385 63.0179 391.36C63.0803 391.271 63.1445 391.171 63.1959 391.075C64.3802 389.189 65.4303 387.101 66.3245 384.879C66.6917 383.988 67.1286 383.12 67.628 382.303C68.5718 380.779 71.1036 377.254 74.3662 377.557L74.3606 377.563L74.3588 377.566ZM62.9426 382.757C62.8471 382.971 62.7534 383.18 62.6635 383.395C62.4358 383.958 62.2008 384.509 61.9548 385.046C59.6433 384.268 57.5152 384.325 56.0336 384.514C56.2117 383.92 56.3623 383.336 56.4835 382.755H62.9426V382.757ZM55.2809 388.635C55.2809 388.635 55.3195 388.629 55.3378 388.622C56.7314 388.343 58.3709 388.173 60.0802 388.596C59.9976 388.736 59.9149 388.875 59.8323 389.007C59.814 389.033 59.8012 389.064 59.781 389.09C59.7553 389.121 59.7368 389.16 59.7111 389.191C59.1291 390.108 58.4829 390.994 57.798 391.829C57.7797 391.848 57.7669 391.868 57.754 391.892L56.601 393.416C56.601 393.416 56.5752 393.447 56.5624 393.468C56.5624 393.468 56.5569 393.48 56.5496 393.486V393.499C54.2068 392.158 51.9137 391.827 50.0905 391.853C51.5336 390.132 53.7441 388.884 55.2698 388.631H55.2754L55.2809 388.635ZM47.6632 396.095C47.6632 396.095 47.7018 396.089 47.7202 396.082C49.5635 395.715 51.8365 395.524 54.1407 396.677L53.388 397.669L50.1712 401.795C49.6461 401.524 49.1009 401.258 48.5372 401.03C47.4852 400.599 46.3524 400.245 45.1755 399.974C45.1755 399.974 45.1442 399.968 45.124 399.961C44.8082 399.891 44.509 399.829 44.2446 399.79C44.0298 399.751 43.8076 399.715 43.5855 399.682C43.4643 399.663 43.3449 399.643 43.2237 399.625H43.1668C42.9006 399.581 42.6161 399.55 42.3187 399.517C43.7563 397.682 46.0861 396.354 47.6761 396.088L47.6632 396.093V396.095Z" fill="black"/>
<path d="M66.3171 384.881C65.4248 387.103 64.3727 389.191 63.1885 391.077C63.1316 391.172 63.0748 391.266 63.0105 391.361C62.3587 392.387 61.6372 393.38 60.8771 394.31L59.7681 395.772C59.7681 395.772 59.7424 395.811 59.7241 395.829L56.5128 400.074L46.4956 412.908C48.9081 415.236 50.3843 418.141 50.7129 421.192L56.3861 421.097L91.1693 420.59L88.0848 377.928L74.4837 377.573C74.4396 377.573 74.3956 377.574 74.3515 377.568C71.0834 377.263 68.5515 380.782 67.6133 382.314C67.114 383.131 66.677 383.997 66.3098 384.89L66.3152 384.885L66.3171 384.881Z" fill="#0F0F0F"/>
<path d="M35.4538 407.859H35.5162C35.6374 407.885 35.7567 407.898 35.8706 407.922C36.0927 407.953 36.3131 407.991 36.5298 408.03C36.8088 408.074 37.1062 408.131 37.4092 408.208C37.4275 408.208 37.4404 408.213 37.4606 408.22C38.6393 408.487 39.7721 408.841 40.8297 409.277C41.722 409.644 42.5701 410.063 43.3633 410.53L47.3346 405.443C44.7312 403.722 42.1038 403.918 40.0199 404.329C40.0016 404.329 39.9814 404.335 39.963 404.342C38.373 404.608 36.0431 405.944 34.6055 407.771C34.9103 407.797 35.1876 407.833 35.4538 407.866V407.859Z" fill="#2E2E2E"/>
<path d="M83.4085 404.043C83.4085 400.043 80.5902 396.798 77.1275 396.798C73.6648 396.798 70.8466 400.051 70.8466 404.043C70.8466 408.035 73.6648 411.288 77.1275 411.288C80.5902 411.288 83.4085 408.035 83.4085 404.043Z" fill="#DBDBDB"/>
<path d="M77.1275 393.374C71.7774 393.374 67.4261 398.157 67.4261 404.037C67.4261 409.918 71.7756 414.701 77.1275 414.701C82.4795 414.701 86.829 409.918 86.829 404.037C86.829 398.157 82.4795 393.374 77.1275 393.374ZM70.8447 404.043C70.8447 400.043 73.663 396.798 77.1257 396.798C80.5884 396.798 83.4067 400.051 83.4067 404.043C83.4067 408.035 80.5884 411.288 77.1257 411.288C73.663 411.288 70.8447 408.035 70.8447 404.043Z" fill="black"/>
<path d="M154.782 385.054C154.534 384.516 154.293 383.966 154.073 383.402C153.985 383.188 153.889 382.971 153.794 382.764H160.253C160.38 383.34 160.532 383.929 160.703 384.523C159.226 384.334 157.093 384.276 154.782 385.055V385.054Z" fill="#2E2E2E"/>
<path d="M160.189 393.506V393.493C160.189 393.493 160.17 393.48 160.17 393.475C160.157 393.457 160.145 393.444 160.132 393.424L158.979 391.899C158.979 391.899 158.947 391.86 158.935 391.837C158.252 391.002 157.605 390.116 157.021 389.198C157.003 389.167 156.977 389.128 156.952 389.097C156.933 389.072 156.921 389.04 156.9 389.015C156.818 388.883 156.735 388.736 156.652 388.604C158.362 388.18 160.003 388.351 161.395 388.629C161.413 388.629 161.433 388.635 161.452 388.642C162.978 388.896 165.188 390.141 166.631 391.864C164.808 391.838 162.515 392.169 160.185 393.51L160.189 393.506Z" fill="#2E2E2E"/>
<path d="M173.518 399.632C173.397 399.645 173.277 399.663 173.156 399.689C172.934 399.72 172.714 399.759 172.497 399.797C172.231 399.841 171.934 399.898 171.618 399.968C171.599 399.968 171.579 399.974 171.566 399.981C170.382 400.247 169.249 400.606 168.205 401.038C167.641 401.272 167.096 401.531 166.571 401.803L163.354 397.676L162.601 396.684C164.905 395.526 167.173 395.722 169.022 396.089C169.04 396.089 169.06 396.095 169.078 396.102C170.668 396.368 172.998 397.704 174.436 399.531C174.131 399.557 173.854 399.594 173.588 399.627H173.531L173.518 399.632Z" fill="#2E2E2E"/>
<path d="M169.991 421.185C170.004 421.102 170.022 421.027 170.035 420.95C170.074 420.748 170.11 420.552 170.167 420.355C170.193 420.26 170.224 420.166 170.25 420.076C170.301 419.898 170.364 419.715 170.428 419.539C170.467 419.443 170.503 419.343 170.542 419.247C170.612 419.077 170.687 418.906 170.77 418.735C170.814 418.64 170.865 418.546 170.915 418.451C171.003 418.28 171.098 418.115 171.199 417.952C171.251 417.864 171.307 417.774 171.364 417.686C171.478 417.515 171.599 417.345 171.719 417.174C171.776 417.099 171.827 417.022 171.884 416.946C172.036 416.757 172.194 416.567 172.359 416.383C172.404 416.339 172.442 416.288 172.481 416.244C172.696 416.009 172.923 415.781 173.171 415.561C173.184 415.548 173.197 415.536 173.21 415.523C173.514 415.244 173.825 414.985 174.128 414.763L174.133 414.758C175.09 414.037 176.184 413.422 177.394 412.928C178.237 412.58 179.142 412.295 180.091 412.081C180.117 412.081 180.148 412.068 180.174 412.062C180.401 412.011 180.629 411.962 180.869 411.923C181.079 411.884 181.268 411.853 181.451 411.828C181.495 411.828 181.534 411.815 181.578 411.809L181.71 411.791L181.806 411.778C182.243 411.716 182.711 411.67 183.3 411.639C183.768 411.613 184.231 411.607 184.686 411.639H184.762C184.793 411.639 184.831 411.639 184.863 411.644H184.951C185.002 411.65 185.052 411.657 185.109 411.657C185.197 411.657 185.28 411.67 185.368 411.675C185.893 411.727 186.368 411.802 186.818 411.91C187.053 411.962 187.268 412.011 187.483 412.068C187.749 412.143 188.008 412.226 188.261 412.316C188.401 412.367 188.566 412.424 188.724 412.486L188.951 412.582C188.951 412.582 188.983 412.595 188.996 412.6C189.128 412.657 189.262 412.714 189.394 412.771C189.596 412.866 189.792 412.967 189.989 413.068C191.326 413.789 192.477 414.75 193.389 415.915C194.636 417.497 195.383 419.377 195.548 421.344C195.561 421.458 195.567 421.572 195.574 421.68L169.985 421.262C169.985 421.262 169.986 421.21 169.991 421.187H169.985L169.991 421.185Z" fill="#D6D6D6"/>
<path d="M167.635 425.159C167.724 425.171 167.806 425.177 167.902 425.184L170.979 425.241L195.567 425.652L195.523 431.032L168.73 430.577L125.372 429.925L125.416 424.533L160.264 425.039L167.623 425.166L167.635 425.16V425.159Z" fill="#D6D6D6"/>
<path d="M121.498 422.843C121.473 422.691 121.46 422.539 121.473 422.388L124.834 375.865C124.91 374.853 125.734 374.062 126.747 374.036L142.073 373.638C145.46 373.346 148.829 375.22 151.502 378.821H161.907C162.895 378.821 163.73 379.555 163.864 380.529C164.092 382.232 164.593 383.997 165.39 385.927C167.973 387.288 170.608 389.686 171.621 392.754C174.8 393.994 178.543 396.994 179.461 401.012V401.043C182.235 402.162 185.395 404.599 186.724 407.877C187.053 407.929 187.376 407.991 187.681 408.061C187.96 408.118 188.239 408.188 188.516 408.257C188.542 408.257 188.56 408.27 188.579 408.276C188.915 408.376 189.251 408.477 189.592 408.599C189.789 408.668 189.985 408.738 190.174 408.813C190.193 408.819 190.218 408.832 190.237 408.839L190.477 408.94C190.666 409.015 190.85 409.098 191.035 409.18C191.307 409.307 191.56 409.433 191.84 409.578C193.67 410.565 195.234 411.875 196.488 413.47C198.211 415.658 199.242 418.26 199.477 421.007C199.54 421.785 199.54 422.544 199.477 423.278C199.509 423.436 199.529 423.601 199.521 423.772L199.446 433.035C199.446 433.56 199.231 434.061 198.851 434.428C198.484 434.789 197.99 434.985 197.478 434.985H197.447L168.673 434.497L123.364 433.82C122.28 433.802 121.414 432.916 121.42 431.833L121.495 422.836L121.5 422.841L121.498 422.843ZM125.38 429.918L168.737 430.569L195.53 431.024L195.574 425.645L170.986 425.234L167.909 425.177C167.821 425.177 167.731 425.164 167.643 425.151L160.284 425.025L125.437 424.518L125.393 429.91L125.38 429.916V429.918ZM195.548 421.344C195.383 419.37 194.636 417.497 193.389 415.915C192.471 414.75 191.326 413.789 189.989 413.068C189.792 412.967 189.603 412.866 189.394 412.771C189.262 412.708 189.128 412.65 188.996 412.6C188.983 412.6 188.964 412.587 188.951 412.582L188.724 412.486C188.566 412.424 188.408 412.365 188.261 412.316C188.008 412.228 187.749 412.15 187.483 412.068C187.268 412.011 187.051 411.96 186.818 411.91C186.368 411.809 185.893 411.732 185.368 411.675C185.28 411.67 185.197 411.662 185.109 411.657C185.057 411.657 185.008 411.657 184.951 411.644H184.863C184.831 411.639 184.793 411.631 184.762 411.631H184.686C184.231 411.6 183.761 411.606 183.3 411.631C182.711 411.67 182.243 411.714 181.806 411.771L181.71 411.784C181.666 411.784 181.622 411.796 181.578 411.802C181.534 411.807 181.495 411.815 181.451 411.82C181.268 411.846 181.079 411.877 180.869 411.916C180.634 411.954 180.407 411.998 180.174 412.055C180.148 412.055 180.122 412.068 180.091 412.073C179.142 412.295 178.235 412.58 177.394 412.921C176.178 413.415 175.082 414.035 174.133 414.75L174.128 414.756C173.823 414.983 173.52 415.237 173.21 415.515C173.197 415.528 173.184 415.541 173.171 415.554C172.93 415.776 172.703 416.003 172.481 416.236C172.437 416.28 172.398 416.332 172.359 416.376C172.194 416.559 172.036 416.748 171.884 416.939C171.827 417.014 171.77 417.091 171.719 417.167C171.592 417.337 171.471 417.502 171.364 417.678C171.307 417.767 171.256 417.856 171.199 417.944C171.098 418.11 171.003 418.28 170.915 418.444C170.863 418.539 170.819 418.633 170.77 418.728C170.687 418.899 170.612 419.069 170.542 419.24C170.503 419.335 170.459 419.429 170.428 419.532C170.366 419.71 170.307 419.886 170.25 420.069C170.224 420.165 170.193 420.253 170.167 420.348C170.116 420.544 170.072 420.746 170.035 420.942C170.022 421.025 170.004 421.1 169.991 421.177C169.991 421.203 169.991 421.229 169.985 421.253L195.574 421.671C195.574 421.557 195.561 421.449 195.548 421.335L195.554 421.341L195.548 421.344ZM182.131 407.764C180.693 405.929 178.363 404.601 176.773 404.335C176.755 404.335 176.735 404.329 176.716 404.322C174.632 403.911 172.005 403.714 169.402 405.435L173.373 410.523C174.164 410.055 175.013 409.637 175.907 409.27C176.959 408.839 178.092 408.485 179.276 408.213C179.276 408.213 179.307 408.213 179.327 408.208C179.637 408.138 179.935 408.081 180.207 408.03C180.421 407.991 180.644 407.955 180.866 407.922C180.987 407.903 181.101 407.883 181.22 407.87H181.282C181.549 407.826 181.833 407.795 182.131 407.762V407.764ZM142.37 377.566C142.326 377.566 142.282 377.572 142.238 377.572L128.637 377.926L125.552 420.588L160.335 421.095L166.009 421.19C166.337 418.141 167.819 415.236 170.226 412.906L160.209 400.073L156.998 395.827C156.998 395.827 156.966 395.789 156.954 395.77L155.845 394.308C155.079 393.372 154.363 392.385 153.711 391.36C153.649 391.271 153.584 391.171 153.533 391.075C152.349 389.189 151.299 387.101 150.405 384.879C150.037 383.988 149.6 383.12 149.101 382.303C148.157 380.779 145.625 377.254 142.363 377.557L142.368 377.563L142.37 377.566ZM153.794 382.757C153.889 382.971 153.983 383.18 154.073 383.395C154.301 383.958 154.536 384.509 154.782 385.046C157.093 384.268 159.221 384.325 160.703 384.514C160.525 383.92 160.374 383.336 160.253 382.755H153.794V382.757ZM161.455 388.635C161.455 388.635 161.417 388.629 161.399 388.622C160.005 388.343 158.365 388.173 156.656 388.596C156.739 388.736 156.821 388.875 156.904 389.007C156.922 389.033 156.935 389.064 156.955 389.09C156.981 389.121 156.999 389.16 157.025 389.191C157.607 390.108 158.253 390.994 158.938 391.829C158.957 391.848 158.97 391.868 158.982 391.892L160.135 393.416C160.135 393.416 160.161 393.447 160.174 393.468C160.174 393.468 160.179 393.48 160.187 393.486V393.499C162.53 392.158 164.823 391.827 166.646 391.853C165.203 390.132 162.992 388.884 161.466 388.631H161.461L161.455 388.635ZM169.068 396.095C169.068 396.095 169.029 396.089 169.011 396.082C167.167 395.715 164.894 395.524 162.59 396.677L163.343 397.669L166.56 401.795C167.085 401.524 167.63 401.258 168.194 401.03C169.246 400.599 170.378 400.245 171.555 399.974C171.555 399.974 171.587 399.968 171.607 399.961C171.923 399.891 172.222 399.829 172.486 399.79C172.701 399.751 172.923 399.715 173.145 399.682C173.266 399.663 173.386 399.643 173.507 399.625H173.564C173.83 399.581 174.115 399.55 174.412 399.517C172.975 397.682 170.645 396.354 169.055 396.088L169.068 396.093V396.095Z" fill="black"/>
<path d="M150.417 384.881C151.31 387.103 152.362 389.191 153.546 391.077C153.603 391.172 153.66 391.266 153.724 391.361C154.376 392.387 155.097 393.38 155.857 394.31L156.966 395.772C156.966 395.772 156.992 395.81 157.01 395.829L160.222 400.074L170.239 412.908C167.826 415.236 166.35 418.141 166.022 421.192L160.348 421.097L125.565 420.59L128.65 377.928L142.251 377.573C142.295 377.573 142.339 377.573 142.383 377.568C145.651 377.263 148.183 380.782 149.121 382.314C149.62 383.131 150.057 383.997 150.425 384.89L150.419 384.885L150.417 384.881Z" fill="#0F0F0F"/>
<path d="M181.282 407.859H181.22C181.099 407.885 180.98 407.898 180.866 407.922C180.644 407.953 180.423 407.991 180.207 408.03C179.928 408.074 179.63 408.131 179.327 408.208C179.309 408.208 179.296 408.213 179.276 408.22C178.097 408.487 176.964 408.841 175.907 409.277C175.014 409.644 174.166 410.063 173.373 410.53L169.402 405.443C172.005 403.722 174.633 403.918 176.716 404.329C176.735 404.329 176.755 404.335 176.773 404.342C178.363 404.608 180.693 405.944 182.131 407.771C181.826 407.797 181.549 407.833 181.282 407.866V407.859Z" fill="#2E2E2E"/>
<path d="M133.326 404.043C133.326 400.043 136.144 396.798 139.607 396.798C143.07 396.798 145.888 400.051 145.888 404.043C145.888 408.035 143.07 411.288 139.607 411.288C136.144 411.288 133.326 408.035 133.326 404.043Z" fill="#DBDBDB"/>
<path d="M139.609 393.374C144.959 393.374 149.31 398.157 149.31 404.037C149.31 409.918 144.961 414.701 139.609 414.701C134.257 414.701 129.907 409.918 129.907 404.037C129.907 398.157 134.257 393.374 139.609 393.374ZM145.89 404.043C145.89 400.043 143.072 396.798 139.609 396.798C136.146 396.798 133.328 400.051 133.328 404.043C133.328 408.035 136.146 411.288 139.609 411.288C143.072 411.288 145.89 408.035 145.89 404.043Z" fill="black"/>
<path d="M155.643 254.749L155.617 254.609C159.847 252.718 162.684 248.597 162.906 243.935L163.268 236.423C163.686 236.044 164.097 235.658 164.49 235.266C173.134 226.71 176.863 216.194 175.578 204.011C173.424 183.655 165.194 166.202 155.668 146.003C152.819 139.96 149.918 133.81 147.037 127.304C148.754 126.216 150.963 125.185 153.946 124.286L193.037 186.154C205.189 205.384 212.153 226.571 213.174 247.421C213.585 255.875 201.895 262.968 190.138 265.606C176.547 268.656 160.666 266.467 155.652 254.76L155.646 254.747L155.643 254.749Z" fill="#242424"/>
<path d="M26.9935 265.595C15.2338 262.957 3.54399 255.862 3.95709 247.41C4.97607 226.56 11.9419 205.373 24.0945 186.143L63.2345 124.2C66.7798 125.243 69.2511 126.478 71.1055 127.768C68.4212 133.78 65.7223 139.525 63.0637 145.17C53.3568 165.8 44.979 183.619 42.8199 204.008C41.5163 216.366 45.3775 226.901 54.3133 235.324C54.5612 235.559 54.8255 235.787 55.0863 236.02L55.4589 243.929C55.6609 248.162 58.0166 251.952 61.6078 254.029L61.4811 254.745C56.4651 266.458 40.5781 268.641 26.9953 265.592V265.597L26.9935 265.595Z" fill="#242424"/>
<path d="M46.7435 204.422C48.8273 184.692 57.0784 167.158 66.6329 146.845C69.1409 141.517 71.6856 136.107 74.2193 130.463C74.7829 131.065 75.2824 131.652 75.7579 132.215C77.9868 134.854 80.0964 137.347 85.6301 137.582H86.0101C90.5634 137.582 93.1596 136.114 95.6804 134.696C98.6125 133.045 101.638 131.337 108.731 131.298C115.798 131.337 118.831 133.045 121.763 134.696C124.341 136.145 127.019 137.644 131.749 137.575H131.806C137.347 137.34 139.449 134.846 141.678 132.208C142.324 131.443 143.015 130.632 143.85 129.81C146.674 136.151 149.474 142.086 152.106 147.667C161.485 167.55 169.584 184.718 171.66 204.41C174.794 234.075 144.753 244.491 131.696 247.591C117.847 250.881 102.744 250.8 88.0151 247.357C71.3166 243.452 43.7581 232.688 46.7471 204.41L46.7416 204.422H46.7435Z" fill="#242424"/>
<path d="M55.894 321.053C60.9339 323.185 64.975 325.901 68.1843 329.337C68.5699 329.755 69.0969 329.963 69.6275 329.963C70.1085 329.963 70.5896 329.785 70.9696 329.431C71.7683 328.689 71.805 327.444 71.0651 326.646C67.0754 322.38 62.0153 319.121 55.582 316.679C54.7649 316.369 54.3279 315.47 54.5813 314.623L59.1732 299.835C59.8379 300.493 60.3887 300.961 61.0221 301.493C61.2755 301.708 61.5417 301.93 61.8447 302.196C62.2174 302.519 62.6746 302.677 63.1372 302.677C63.688 302.677 64.2388 302.449 64.6317 301.994C65.3478 301.172 65.2522 299.925 64.4297 299.217C64.1139 298.945 63.8348 298.705 63.5686 298.483C62.5753 297.641 61.9163 297.09 60.6311 295.609C59.2889 294.065 59.2632 291.793 60.5686 290.212C60.5686 290.206 60.5815 290.193 60.5815 290.186C60.6439 290.103 60.7081 290.015 60.7595 289.927C60.7778 289.896 60.7907 289.871 60.8109 289.839C60.8623 289.744 60.8991 289.643 60.9321 289.535C60.9321 289.516 60.9376 289.496 60.9449 289.478C60.9633 289.421 60.9762 289.357 60.989 289.294L63.5025 274.993C63.5154 274.923 63.5209 274.861 63.5283 274.791L64.7823 257.022C64.9273 256.706 65.0797 256.389 65.2137 256.066L65.2963 255.87L65.3348 255.66V255.609C75.3392 259.222 92.1719 263.803 104.356 264.728L101.284 323.659C101.258 324.158 101.423 324.646 101.739 325.02C101.745 325.033 101.752 325.038 101.765 325.051C101.816 325.108 101.873 325.172 101.93 325.222L101.961 325.253C103.089 326.279 103.304 327.943 102.494 329.227L97.3402 337.004C96.738 337.909 96.9859 339.131 97.8984 339.733C98.2344 339.954 98.6143 340.061 98.987 340.061C99.5378 340.061 100.083 339.826 100.469 339.389L98.1003 384.824C80.269 380.003 62.8361 378.331 46.2 379.85L55.9069 321.051H55.9014L55.894 321.053Z" fill="#1A1A1A"/>
<path d="M116.71 325.242C116.767 325.191 116.818 325.134 116.868 325.077C116.912 325.025 116.956 324.969 116.995 324.919C116.995 324.914 117.008 324.901 117.013 324.893C117.165 324.679 117.272 324.444 117.329 324.191C117.342 324.147 117.347 324.108 117.354 324.064C117.362 324.02 117.367 323.976 117.373 323.932C117.386 323.837 117.386 323.743 117.386 323.648V323.622L114.314 264.696C126.009 263.761 141.885 259.521 151.897 256.009L151.915 256.06C152.505 257.479 153.239 258.807 154.093 260.04L155.132 274.784C155.132 274.853 155.145 274.916 155.158 274.985L157.671 289.287C157.684 289.344 157.697 289.401 157.715 289.458C157.715 289.483 157.728 289.502 157.734 289.527C157.765 289.628 157.809 289.729 157.855 289.825C157.873 289.856 157.886 289.887 157.906 289.92C157.958 290.008 158.015 290.091 158.077 290.173C158.083 290.186 158.09 290.192 158.096 290.204C159.406 291.786 159.375 294.057 158.033 295.602C156.748 297.083 156.089 297.641 155.088 298.475C154.822 298.697 154.543 298.938 154.227 299.209C153.405 299.925 153.315 301.165 154.025 301.987C154.418 302.436 154.962 302.669 155.52 302.669C155.975 302.669 156.438 302.512 156.812 302.189C157.117 301.93 157.381 301.701 157.635 301.486C158.268 300.954 158.824 300.486 159.491 299.822L164.277 315.243C164.43 315.736 164.151 316.274 163.644 316.457C163.631 316.457 163.618 316.47 163.605 316.476C156.932 318.938 151.688 322.266 147.603 326.633C146.861 327.431 146.9 328.677 147.698 329.418C148.078 329.772 148.559 329.95 149.04 329.95C149.565 329.95 150.092 329.741 150.483 329.324C153.687 325.901 157.728 323.174 162.774 321.04L172.481 379.834C168.517 379.472 164.509 379.289 160.462 379.289C147.518 379.289 134.163 381.137 120.58 384.808L118.212 339.373C118.592 339.81 119.137 340.044 119.694 340.044C120.066 340.044 120.446 339.936 120.782 339.716C121.687 339.114 121.941 337.894 121.34 336.988L116.231 329.275C115.408 327.972 115.616 326.244 116.725 325.231L116.706 325.244L116.71 325.242Z" fill="#1A1A1A"/>
<path d="M179.129 270.784C182.974 270.784 186.987 270.334 190.995 269.435C198.346 267.784 205.94 264.43 211.031 259.811C211.013 268.606 202.121 277.262 192.363 277.978C182.889 278.673 175.936 277.149 171.706 273.454C170.434 272.34 169.381 271.024 168.559 269.505C171.807 270.36 175.391 270.789 179.134 270.789L179.129 270.784Z" fill="#F5F5F5"/>
<path d="M6.09597 259.811C11.1872 264.436 18.7737 267.79 26.1324 269.435C30.1349 270.334 34.1558 270.784 37.9985 270.784C41.8413 270.784 45.3241 270.353 48.5739 269.5C47.744 271.019 46.6993 272.334 45.427 273.448C41.1968 277.143 34.2513 278.668 24.7701 277.972C15.0118 277.257 6.12173 268.601 6.10153 259.805L6.09597 259.811Z" fill="#F5F5F5"/>
<path d="M64.7785 251.193C61.6702 249.997 59.5606 247.074 59.4028 243.738L59.1934 239.315C66.4383 244.524 75.9543 248.591 87.1136 251.198C94.946 253.028 102.887 253.945 110.701 253.945C118.515 253.945 125.543 253.11 132.604 251.433C143.097 248.94 152.134 244.953 159.157 239.783L158.968 243.738C158.81 247.067 156.7 249.991 153.592 251.186C143.207 255.178 122.431 260.943 109.987 260.943C109.728 260.943 109.474 260.943 109.221 260.937H109.146C96.7967 261.177 75.376 255.268 64.7748 251.186L64.7803 251.191L64.7785 251.193Z" fill="#141414"/>
<path d="M120.909 93.9635C121.295 93.8424 121.675 93.7231 122.055 93.591C124.012 93.9194 125.967 94.3194 127.924 94.7927C126.386 95.6092 123.999 96.3688 120.909 96.9375V93.9635Z" fill="#1A1A1A"/>
<path d="M94.9074 93.5323C95.3389 93.6772 95.776 93.824 96.2111 93.9561V96.9174C93.077 96.3358 90.6772 95.556 89.157 94.7212C91.0628 94.2533 92.9814 93.8534 94.9074 93.525V93.5323Z" fill="#1A1A1A"/>
<path d="M108.599 97.9375C105.496 97.9375 102.665 97.7723 100.151 97.4953V94.9634C102.868 95.5138 105.679 95.8055 108.56 95.8055C111.441 95.8055 114.254 95.5138 116.963 94.9634V97.5008C114.468 97.7723 111.67 97.9319 108.591 97.9319L108.597 97.9375H108.599Z" fill="#F5F5F5"/>
<path d="M155.529 119.769C144.858 122.345 141.313 126.546 138.665 129.678C136.664 132.05 135.454 133.481 131.661 133.652C127.989 133.691 126.094 132.634 123.694 131.28C120.643 129.559 116.842 127.414 108.725 127.37C100.588 127.414 96.7894 129.559 93.7361 131.28C91.3934 132.603 89.5242 133.652 86.0101 133.652H85.7697C81.9838 133.487 80.7666 132.05 78.7653 129.678C76.1178 126.546 72.5725 122.345 61.9016 119.769L69.5834 109.252C70.2609 113.035 71.0026 116.226 71.8252 118.44C72.1611 119.345 73.1049 119.87 74.0486 119.686C74.9978 119.503 75.6698 118.661 75.6441 117.694C75.6441 117.505 75.4549 110.454 75.8919 100.622L76.9366 99.1924C83.0726 105.856 90.0071 106.893 95.6749 107.742C96.0366 107.799 96.391 107.85 96.7453 107.907L98.9558 108.249C100.032 108.414 101.04 107.672 101.203 106.597C101.366 105.522 100.627 104.515 99.5508 104.352L97.3402 104.01C96.9785 103.953 96.6186 103.902 96.2514 103.845C93.5029 103.434 90.7103 103.016 87.9618 102.011L87.7838 98.4548C94.2612 101.688 105.85 101.884 108.591 101.884C111.332 101.884 122.921 101.682 129.393 98.4548L129.21 102.1C126.538 103.043 123.826 103.449 121.161 103.847C120.793 103.904 120.432 103.955 120.072 104.012L117.861 104.353C116.785 104.519 116.044 105.524 116.214 106.599C116.38 107.674 117.393 108.408 118.462 108.25L120.672 107.909C121.027 107.852 121.388 107.801 121.748 107.744C127.416 106.896 134.349 105.865 140.486 99.1942L141.202 100.176C141.665 110.25 141.474 117.508 141.469 117.705C141.437 118.666 142.115 119.514 143.064 119.697C143.191 119.723 143.318 119.736 143.444 119.736C144.254 119.736 145.001 119.237 145.293 118.451C146.136 116.18 146.914 112.883 147.636 108.971L155.525 119.78V119.774L155.529 119.769Z" fill="#1A1A1A"/>
<path d="M156.858 34.9114C152.602 27.8312 148.677 22.4573 143.395 18.2558C140.799 15.801 137.955 13.6562 134.903 11.8142L136.847 7.17601C137.931 4.58723 140.261 3.81665 142.078 3.9616C143.901 4.10654 146.086 5.23305 146.758 7.97411C146.885 8.49334 147.221 8.94284 147.684 9.20888C148.146 9.48042 148.703 9.54463 149.217 9.39785L150.445 9.04375C154.187 7.96861 157.036 9.87304 158.461 12.0123C159.917 14.2011 160.576 17.6504 158.068 20.7639C157.727 21.1877 157.574 21.7326 157.649 22.2702C157.725 22.8078 158.017 23.2885 158.459 23.6059C161.112 25.4846 161.487 28.378 160.947 30.453C160.497 32.1997 159.193 34.1353 156.856 34.8949V34.9132L156.858 34.9114Z" fill="#383838"/>
<path d="M73.7327 18.2614C68.3312 22.5638 64.4058 28.1523 60.3776 34.9536C57.9779 34.2197 56.6414 32.251 56.186 30.4806C55.6481 28.3982 56.0208 25.514 58.6738 23.6334C59.1163 23.3178 59.4156 22.8353 59.4835 22.2977C59.5588 21.7602 59.4082 21.2152 59.0649 20.7914C56.5569 17.6724 57.216 14.2287 58.6719 12.0398C60.0967 9.90057 62.9462 7.99614 66.688 9.07128L67.9163 9.42538C68.4285 9.57032 68.9866 9.5006 69.4493 9.2364C69.912 8.96487 70.2481 8.52087 70.3748 8.00164C71.0468 5.26242 73.2297 4.12856 75.0547 3.98912C76.865 3.84418 79.1967 4.61476 80.2854 7.20354L82.2353 11.86C79.3546 13.581 76.4794 15.6818 73.7309 18.276V18.2577L73.7327 18.2614Z" fill="#383838"/>
<path d="M139.019 76.5924C132.149 85.8504 121.061 91.8682 108.567 91.8682C96.0733 91.8682 84.9801 85.8449 78.1079 76.5869C79.4317 67.7087 81.4385 58.9076 84.4844 51.921L84.3064 56.8509C84.2807 57.6031 84.6864 58.3132 85.351 58.6673C86.0156 59.0214 86.8327 58.959 87.4404 58.515L98.3701 50.4973L101.455 53.642C101.892 54.0841 102.512 54.3006 103.133 54.2181C103.753 54.1355 104.291 53.7631 104.596 53.2182L108.687 45.7949L113.473 53.3759C113.815 53.9209 114.404 54.2621 115.05 54.2933C115.702 54.319 116.31 54.0401 116.703 53.5282L118.944 50.6239L129.696 58.515C130.304 58.9645 131.115 59.0214 131.786 58.6673C132.458 58.3132 132.861 57.6105 132.83 56.8509L132.652 51.921C135.698 58.9076 137.705 67.7161 139.029 76.5869L139.016 76.5924H139.019Z" fill="#F5F5F5"/>
<path d="M150.601 87.6282C151.146 82.7992 151.646 78.0106 152.095 73.6697C152.38 70.9176 152.646 68.3289 152.894 66.107L179.933 80.326L167.377 80.7682C166.712 80.7939 166.104 81.148 165.755 81.7168C165.407 82.2855 165.375 82.9882 165.667 83.59L171.777 96.2587L161.075 95.0239C160.499 94.9616 159.93 95.145 159.506 95.5432C159.081 95.9358 158.854 96.499 158.885 97.0751L159.195 103.669L150.616 87.6282H150.601Z" fill="#BDBDBD"/>
<path d="M65.4304 74.1376C65.8159 78.2308 66.24 82.7314 66.71 87.2741L57.9395 103.669L58.2497 97.0751C58.2754 96.499 58.0477 95.9358 57.6291 95.5432C57.2105 95.1505 56.6286 94.9616 56.0594 95.0239L45.3571 96.2587L51.4675 83.59C51.7594 82.9882 51.7208 82.2874 51.3793 81.7168C51.0378 81.148 50.4301 80.7921 49.7582 80.7682L37.2017 80.326L64.5582 65.9419L64.7234 66.7015C64.9455 68.9105 65.1861 71.4479 65.4395 74.1376H65.4304Z" fill="#BDBDBD"/>
<path d="M145.163 99.385C144.327 81.6855 141.434 55.8051 131.973 42.6355C131.466 41.9328 130.554 41.6429 129.731 41.92C128.908 42.1988 128.369 42.9896 128.402 43.8556L128.73 52.9227L119.714 46.3031C118.853 45.6701 117.643 45.8408 116.984 46.6884L115.293 48.8845L110.233 40.8613C109.871 40.2852 109.239 39.944 108.567 39.944H108.51C107.815 39.9623 107.181 40.355 106.845 40.9622L102.426 48.9928L100 46.5178C99.3175 45.8151 98.2141 45.727 97.4228 46.3086L88.4061 52.9283L88.7348 43.8611C88.766 42.9933 88.2281 42.2099 87.4056 41.9255C86.583 41.6411 85.6759 41.931 85.1637 42.641C75.8166 55.6455 72.8791 81.0507 72.0051 98.7245C70.9347 90.4151 70.0607 81.1205 69.3649 73.7669C68.8324 68.1472 68.3955 63.4834 68.0155 60.6744C69.4347 60.0855 71.39 59.1241 73.182 57.8838C74.0743 57.2637 74.3019 56.0363 73.6814 55.1446C73.0608 54.2529 71.8325 54.0254 70.9402 54.6455C68.5901 56.2711 65.8617 57.3352 65.2981 57.4875C65.2797 57.4875 65.2596 57.5059 65.2357 57.5132C65.2173 57.5132 65.1971 57.5187 65.1788 57.526L58.8721 59.6965C60.563 54.1538 62.4946 49.2368 64.6225 45.0225C68.0981 44.5418 71.6012 42.9603 74.5773 40.4981C75.4127 39.8082 75.5339 38.5624 74.8435 37.7258C74.1532 36.891 72.9066 36.7699 72.0694 37.4598C68.682 40.2559 65.4009 40.9971 63.5704 41.1806C63.4382 41.1677 63.2987 41.1622 63.1592 41.1806L63.038 41.1934L61.2332 41.3512C66.0583 32.8528 70.2443 26.057 76.2536 21.2978C76.2977 21.2593 76.3417 21.2226 76.3858 21.184C89.5885 8.66029 106.662 8.30068 108.567 8.30068C110.587 8.30068 115.989 8.52268 122.479 10.5464C129.47 12.7425 135.619 16.3239 140.747 21.184C140.791 21.2226 140.835 21.2593 140.879 21.2978C146.736 25.9359 150.917 32.3721 156.065 41.3641L154.405 41.2191H154.348C152.531 41.087 148.934 40.4027 145.21 37.3332C144.368 36.6378 143.127 36.7571 142.436 37.5992C141.74 38.4414 141.86 39.6816 142.702 40.3715C145.635 42.7951 149.053 44.3895 152.479 44.9601C154.62 49.1744 156.551 54.0915 158.248 59.6415L152.454 57.5462C152.454 57.5462 152.396 57.5334 152.371 57.5279C152.345 57.5224 152.327 57.5095 152.308 57.5022C151.745 57.3444 149.016 56.2876 146.666 54.6602C145.774 54.0401 144.546 54.2621 143.925 55.1593C143.305 56.0509 143.527 57.2784 144.425 57.8985C146.217 59.1388 148.174 60.0946 149.586 60.6891C149.206 63.4173 148.743 67.8903 148.179 73.2807C147.381 80.9755 146.369 90.7765 145.165 99.4015L145.159 99.3832L145.163 99.385ZM122.916 38.8156C124.175 39.3972 125.519 39.689 126.817 39.689C127.787 39.689 128.73 39.5238 129.604 39.2009C131.238 38.5863 132.511 37.4359 133.183 35.948C134.74 32.4987 132.683 28.1651 128.604 26.2919C126.401 25.2791 123.968 25.1397 121.917 25.9121C120.283 26.5267 119.011 27.6771 118.346 29.1705C116.789 32.6198 118.845 36.9534 122.925 38.8266L122.919 38.8138L122.916 38.8156ZM83.9538 35.9425C84.6257 37.4304 85.8908 38.5881 87.5322 39.2009C88.4062 39.5293 89.3499 39.689 90.3193 39.689C91.6173 39.689 92.9595 39.3972 94.2208 38.8156C98.3059 36.9424 100.357 32.6088 98.7998 29.1595C98.1278 27.6716 96.8628 26.5139 95.2287 25.9011C93.1779 25.136 90.7397 25.2755 88.542 26.2809C84.4569 28.1541 82.4061 32.4877 83.963 35.937L83.9574 35.9425H83.9538Z" fill="#666666"/>
<path d="M123.29 29.5962C123.714 29.4384 124.19 29.3559 124.689 29.3559C125.424 29.3559 126.21 29.5265 126.95 29.8677C129.033 30.8236 130.242 32.8675 129.584 34.3224C129.279 34.9939 128.679 35.3352 128.222 35.5058C127.164 35.8984 125.796 35.7975 124.561 35.2343C122.477 34.2784 121.269 32.2345 121.926 30.7796C122.231 30.1081 122.831 29.7668 123.288 29.5962H123.29Z" fill="#E6E6E6"/>
<path d="M121.91 25.9066C123.96 25.1415 126.399 25.281 128.596 26.2864C132.681 28.1596 134.732 32.4932 133.175 35.9425C132.503 37.4304 131.238 38.5882 129.597 39.1954C128.723 39.5239 127.779 39.6835 126.81 39.6835C125.512 39.6835 124.17 39.3918 122.908 38.8102C118.823 36.9369 116.772 32.6033 118.329 29.1541C119.001 27.6661 120.266 26.5084 121.901 25.8956L121.906 25.9084L121.91 25.9066ZM124.557 35.2343C125.793 35.8031 127.161 35.9058 128.218 35.5058C128.674 35.3352 129.281 34.9939 129.581 34.3224C130.24 32.8602 129.03 30.8236 126.946 29.8678C126.211 29.5265 125.426 29.3559 124.686 29.3559C124.186 29.3559 123.711 29.4311 123.287 29.5962C122.831 29.7668 122.224 30.1081 121.924 30.7796C121.265 32.2419 122.475 34.2784 124.559 35.2343H124.557Z" fill="black"/>
<path d="M88.9055 35.5058C88.4502 35.3352 87.8425 34.9939 87.5432 34.3224C86.8841 32.8602 88.094 30.8236 90.1778 29.8677C90.9122 29.5265 91.6981 29.3559 92.438 29.3559C92.9374 29.3559 93.4129 29.4311 93.837 29.5962C94.2924 29.7668 94.9001 30.1081 95.1994 30.7796C95.8585 32.2419 94.6486 34.2784 92.5647 35.2343C91.3291 35.7975 89.9613 35.9058 88.9037 35.5058H88.9055Z" fill="#E6E6E6"/>
<path d="M88.531 26.2864C90.7342 25.2736 93.1725 25.1342 95.2178 25.9066C96.8518 26.5212 98.1241 27.6716 98.7888 29.165C100.346 32.6143 98.2894 36.9479 94.2098 38.8211C92.9503 39.4027 91.6063 39.6945 90.3082 39.6945C89.3388 39.6945 88.3951 39.5293 87.5212 39.2064C85.8871 38.5918 84.6148 37.4414 83.9428 35.948C82.3859 32.4987 84.4422 28.1651 88.5218 26.2919L88.5273 26.2864H88.531ZM95.1994 30.7796C94.8946 30.1081 94.2942 29.7668 93.837 29.5962C93.4129 29.4384 92.9374 29.3559 92.438 29.3559C91.7036 29.3559 90.9177 29.5265 90.1778 29.8677C88.094 30.8236 86.8859 32.8675 87.5432 34.3224C87.848 34.9939 88.4484 35.3352 88.9055 35.5058C89.9631 35.8984 91.3309 35.7975 92.5665 35.2343C94.6504 34.2784 95.8585 32.2345 95.2012 30.7796L95.1994 30.7796Z" fill="black"/>
<path d="M214.54 240.049L213.185 240.663L209.994 250.074C208.551 254.339 202.49 254.262 201.148 249.96L198.198 240.469L188.256 240.342C183.754 240.286 181.954 234.503 185.628 231.901L193.747 226.162L190.797 216.671C189.46 212.374 194.406 208.875 198.016 211.565L205.988 217.508L209.331 216.014" fill="#515052"/>
<path d="M177.329 157.52L175.569 157.988L175.264 161.303C175.124 162.802 173.149 163.251 172.376 161.962L170.672 159.101L167.424 159.835C165.955 160.171 164.916 158.424 165.911 157.292L168.102 154.786L166.398 151.926C165.625 150.629 166.962 149.104 168.348 149.698L171.407 151.008L172.4 149.794" fill="#515052"/>
<path d="M197.296 189.33L195.556 189.981L196.094 195.177C196.334 197.531 193.428 198.823 191.845 197.063L188.357 193.177L183.576 195.297C181.409 196.258 179.283 193.886 180.473 191.842L183.095 187.323L179.606 183.437C178.023 181.677 179.619 178.925 181.936 179.419L187.046 180.514L189.921 177.636" fill="#C2C2C2"/>
<path d="M3.34199 240.663L6.53299 250.074C7.97609 254.339 14.0367 254.262 15.3788 249.96L18.3294 240.469L28.2713 240.342C32.7732 240.286 34.5724 234.503 30.8986 231.901L22.7798 226.162L25.7303 216.671C27.0669 212.374 22.1207 208.875 18.5111 211.565L10.5391 217.508L7.99986 216.089" fill="#515052"/>
<path d="M41.0132 157.925L41.5016 157.988L41.8064 161.303C41.9459 162.802 43.9215 163.251 44.6945 161.962L46.3982 159.101L49.6461 159.835C51.1149 160.171 52.1541 158.424 51.159 157.292L48.9687 154.786L50.6725 151.926C51.4455 150.629 50.1088 149.104 48.7226 149.698L45.6638 151.008L44.5494 149.75" fill="#515052"/>
<path d="M20.8832 189.743L21.6121 189.991L21.0742 195.186C20.8337 197.54 23.74 198.832 25.3227 197.073L28.8111 193.187L33.5922 195.306C35.7586 196.267 37.8847 193.895 36.6949 191.851L34.0732 187.332L37.5615 183.446C39.1442 181.687 37.5487 178.935 35.2316 179.428L30.1221 180.523L28.7854 178.245" fill="#C2C2C2"/>
<path d="M51.361 178.883L52.1523 178.914L53.1346 184.18C53.5771 186.565 56.8194 186.989 57.8586 184.8L60.1629 179.966L65.4762 180.661C67.8833 180.977 69.2879 178.028 67.5271 176.359L63.6384 172.676L65.9426 167.842C66.9873 165.653 64.6133 163.406 62.4854 164.563L57.7742 167.119L55.7986 165.271" fill="#515052"/>
<path d="M107.554 150.364L106.408 146.845H102.71C101.032 146.845 100.336 144.701 101.691 143.719L104.686 141.549L103.54 138.03C103.021 136.435 104.844 135.112 106.201 136.099L109.195 138.27L112.19 136.099C113.545 135.112 115.368 136.441 114.85 138.03L113.704 141.549L116.699 143.719C118.054 144.706 117.358 146.845 115.68 146.845H111.982L110.837 150.364C110.317 151.959 108.062 151.959 107.545 150.364H107.558H107.554Z" fill="#515052"/>
<path d="M107.813 228.589L106.851 231.558H103.73C102.318 231.558 101.728 233.367 102.868 234.196L105.395 236.031L104.433 238.999C103.996 240.348 105.534 241.462 106.68 240.632L109.206 238.798L111.733 240.632C112.878 241.462 114.417 240.348 113.98 238.999L113.018 236.031L115.544 234.196C116.69 233.367 116.102 231.558 114.683 231.558H111.562L110.6 228.589C110.163 227.241 108.257 227.241 107.82 228.589H107.813Z" fill="#929194"/>
<path d="M149.114 148.629L146.189 149.97L146.562 153.166C146.732 154.615 144.948 155.432 143.958 154.362L141.773 151.995L138.849 153.337C137.525 153.944 136.196 152.502 136.904 151.229L138.481 148.425L136.297 146.058C135.309 144.989 136.271 143.273 137.703 143.565L140.863 144.198L142.44 141.394C143.156 140.123 145.08 140.508 145.251 141.958L145.623 145.154L148.783 145.787C150.214 146.071 150.443 148.02 149.119 148.629H149.114Z" fill="#929194"/>
<path d="M69.2878 148.629L72.2126 149.97L71.8399 153.166C71.6691 154.615 73.4537 155.432 74.4433 154.362L76.6281 151.995L79.5529 153.337C80.8767 153.944 82.206 152.502 81.4973 151.229L79.9201 148.425L82.105 146.058C83.0928 144.989 82.1307 143.273 80.6986 143.565L77.5388 144.198L75.9617 141.394C75.2456 140.123 73.3214 140.508 73.1507 141.958L72.778 145.154L69.6182 145.787C68.188 146.071 67.9585 148.02 69.2822 148.629H69.2878Z" fill="#929194"/>
<path d="M167.503 202.949L164.876 204.158L165.212 207.024C165.364 208.321 163.761 209.062 162.875 208.094L160.917 205.967L158.29 207.176C157.1 207.721 155.909 206.43 156.55 205.285L157.969 202.766L156.012 200.639C155.125 199.678 155.986 198.14 157.271 198.399L160.108 198.968L161.527 196.449C162.166 195.309 163.895 195.651 164.048 196.955L164.384 199.821L167.22 200.39C168.506 200.648 168.71 202.395 167.518 202.94L167.505 202.945L167.503 202.949Z" fill="#929194"/>
<path d="M51.6584 202.949L54.2857 204.158L53.9497 207.024C53.7973 208.321 55.4002 209.062 56.2869 208.094L58.2442 205.967L60.8715 207.176C62.0613 207.721 63.2529 206.43 62.6121 205.285L61.1928 202.766L63.15 200.639C64.0368 199.678 63.1758 198.14 61.8906 198.399L59.0538 198.968L57.6346 196.449C56.9957 195.309 55.2662 195.651 55.1138 196.955L54.7778 199.821L51.9412 200.39C50.6559 200.648 50.4521 202.395 51.6437 202.94L51.6566 202.945L51.6584 202.949Z" fill="#929194"/>
<path d="M71.636 226.362L78.4568 224.634L82.2059 230.582C83.9024 233.277 88.0629 232.227 88.2722 229.044L88.7348 222.026L95.5556 220.298C98.6456 219.513 98.9301 215.242 95.9668 214.058L89.4325 211.446L89.8952 204.428C90.1045 201.252 86.1204 199.656 84.0824 202.105L79.5805 207.508L73.0461 204.896C70.0883 203.712 67.3398 207.009 69.0381 209.705L72.7873 215.653L68.2854 221.056C66.2455 223.505 68.5331 227.131 71.6231 226.345L71.6415 226.358L71.636 226.362Z" fill="#515052"/>
<path d="M146.764 226.362L139.943 224.634L136.194 230.582C134.497 233.277 130.337 232.227 130.128 229.044L129.665 222.026L122.844 220.298C119.754 219.513 119.47 215.242 122.433 214.058L128.967 211.446L128.505 204.428C128.295 201.252 132.279 199.656 134.317 202.105L138.819 207.508L145.354 204.896C148.311 203.712 151.06 207.009 149.362 209.705L145.612 215.653L150.114 221.056C152.154 223.505 149.867 227.131 146.777 226.345L146.758 226.358L146.764 226.362Z" fill="#515052"/>
<path d="M166.565 178.883L165.774 178.914L164.791 184.18C164.349 186.565 161.107 186.989 160.067 184.8L157.763 179.966L152.45 180.661C150.043 180.977 148.638 178.028 150.399 176.359L154.288 172.676L151.983 167.842C150.939 165.653 153.313 163.406 155.441 164.563L160.152 167.119L162.127 165.271" fill="#515052"/>
<path d="M103.267 205.916L99.145 193.234H85.8027C79.7549 193.234 77.2469 185.508 82.1362 181.951L92.9338 174.111L88.8119 161.43C86.9446 155.683 93.5231 150.906 98.4123 154.456L109.21 162.296L120.008 154.456C124.897 150.906 131.475 155.683 129.608 161.43L125.486 174.111L136.284 181.951C141.173 185.501 138.658 193.234 132.617 193.234H119.275L115.153 205.916C113.286 211.662 105.154 211.662 103.287 205.916H103.267Z" fill="#464647"/>
<path d="M116.425 175.594C117.799 175.069 119.281 176.049 120.022 177.986C120.281 178.663 120.402 179.347 120.371 179.96C120.32 181.017 119.782 181.846 118.941 182.169C118.7 182.265 118.452 182.309 118.199 182.309C117.573 182.309 116.932 182.024 116.394 181.487C115.963 181.05 115.596 180.461 115.337 179.784C114.595 177.854 115.045 176.133 116.42 175.608L116.425 175.595V175.594Z" fill="#DDDCE0"/>
<path d="M98.3776 177.979C99.1193 176.049 100.601 175.067 101.974 175.594C103.355 176.118 103.797 177.839 103.058 179.777C102.799 180.454 102.431 181.043 102 181.479C101.468 182.017 100.829 182.301 100.195 182.301C99.9473 182.301 99.6958 182.257 99.4534 182.162C98.6052 181.839 98.0728 181.017 98.0159 179.953C97.9846 179.338 98.104 178.656 98.3647 177.979H98.3776Z" fill="#DDDCE0"/>
<path d="M109.1 180.909C109.232 180.833 109.392 180.833 109.524 180.909C110.036 181.193 111.246 181.971 111.481 183.004C111.582 183.446 111.494 183.877 111.209 184.283C110.925 184.701 110.602 184.921 110.253 184.947C109.829 184.991 109.487 184.707 109.309 184.529C109.144 184.699 108.828 184.952 108.435 184.952H108.365C108.017 184.927 107.693 184.699 107.403 184.288C107.119 183.883 107.031 183.453 107.132 183.009C107.372 181.978 108.582 181.2 109.089 180.914L109.102 180.909H109.1Z" fill="#DDDCE0"/>
<path d="M104.032 197.924L103.937 197.539C103.836 197.14 104.082 196.735 104.482 196.634C104.883 196.533 105.286 196.779 105.387 197.179L105.571 197.92H108.307V197.065C108.307 196.654 108.643 196.318 109.054 196.318C109.465 196.318 109.801 196.654 109.801 197.065V197.92H112.537L112.72 197.179C112.821 196.781 113.227 196.533 113.626 196.634C114.024 196.735 114.272 197.133 114.171 197.539L114.075 197.924H117.982C118.394 197.924 118.73 198.26 118.73 198.671C118.73 199.082 118.394 199.417 117.982 199.417H113.708L113.46 200.404C113.378 200.746 113.075 200.968 112.739 200.968C112.682 200.968 112.618 200.962 112.561 200.949C112.162 200.848 111.914 200.45 112.015 200.045L112.173 199.419H109.812V200.318C109.812 200.729 109.476 201.065 109.065 201.065C108.654 201.065 108.318 200.729 108.318 200.318V199.419H105.957L106.114 200.045C106.215 200.443 105.969 200.848 105.569 200.949C105.512 200.962 105.448 200.968 105.391 200.968C105.055 200.968 104.752 200.74 104.669 200.404L104.422 199.417H100.147C99.7361 199.417 99.4002 199.082 99.4002 198.671C99.4002 198.26 99.7361 197.924 100.147 197.924H100.122H104.032Z" fill="#C4C3C7"/>
<path d="M127.945 169.607C127.805 169.607 127.66 169.568 127.533 169.486L124.273 167.334L124.14 167.706C124.032 168.011 123.742 168.2 123.437 168.2C123.355 168.2 123.272 168.187 123.189 168.156C122.804 168.016 122.6 167.592 122.734 167.207L122.987 166.486L120.707 164.98L120.239 165.688C120.094 165.903 119.859 166.024 119.618 166.024C119.479 166.024 119.334 165.985 119.207 165.903C118.866 165.675 118.77 165.213 118.992 164.871L119.46 164.163L117.175 162.657L116.611 163.176C116.466 163.308 116.288 163.372 116.104 163.372C115.902 163.372 115.706 163.29 115.553 163.132C115.274 162.828 115.295 162.36 115.598 162.081L115.889 161.815L112.629 159.663C112.287 159.435 112.192 158.973 112.419 158.632C112.647 158.29 113.11 158.195 113.451 158.422L117.022 160.776L117.769 160.087C118.074 159.808 118.542 159.828 118.821 160.131C119.101 160.433 119.08 160.903 118.777 161.182L118.302 161.618L120.277 162.921L120.771 162.169C120.999 161.828 121.462 161.732 121.803 161.954C122.145 162.182 122.24 162.644 122.018 162.985L121.524 163.738L123.5 165.04L123.714 164.426C123.854 164.04 124.278 163.831 124.664 163.971C125.049 164.11 125.253 164.534 125.119 164.919L124.777 165.881L128.348 168.234C128.69 168.462 128.785 168.924 128.558 169.266C128.413 169.48 128.178 169.601 127.937 169.601H127.943L127.945 169.607Z" fill="#C4C3C7"/>
<path d="M105.705 159.672L102.444 161.824L102.736 162.09C103.041 162.369 103.059 162.842 102.78 163.141C102.635 163.299 102.431 163.382 102.229 163.382C102.046 163.382 101.868 163.319 101.723 163.185L101.159 162.666L98.8788 164.172L99.347 164.881C99.5746 165.222 99.4791 165.684 99.1321 165.912C99.0054 165.994 98.8659 166.033 98.7208 166.033C98.4803 166.033 98.2398 165.912 98.1003 165.697L97.6321 164.989L95.3463 166.495L95.5997 167.216C95.7392 167.602 95.5373 168.033 95.1444 168.165C95.0618 168.196 94.979 168.209 94.8964 168.209C94.5916 168.209 94.3016 168.02 94.1933 167.715L94.0611 167.343L90.8003 169.495C90.6736 169.578 90.5341 169.616 90.3891 169.616C90.1486 169.616 89.908 169.495 89.7684 169.28C89.5408 168.939 89.6363 168.477 89.9778 168.249L93.5488 165.895L93.2073 164.934C93.0678 164.549 93.2697 164.117 93.6626 163.985C94.0482 163.846 94.4796 164.048 94.6118 164.44L94.8267 165.055L96.8023 163.752L96.3083 163C96.0807 162.659 96.1762 162.196 96.5232 161.969C96.8647 161.741 97.3273 161.837 97.555 162.184L98.0489 162.936L100.024 161.633L99.5489 161.197C99.2441 160.918 99.2257 160.444 99.5048 160.145C99.7839 159.841 100.258 159.822 100.557 160.101L101.304 160.791L104.875 158.437C105.217 158.21 105.679 158.305 105.907 158.646C106.135 158.988 106.039 159.45 105.698 159.677H105.703L105.705 159.672Z" fill="#C4C3C7"/>
<path d="M123.994 189.26L123.601 189.198C123.195 189.128 122.923 188.748 122.986 188.343C123.055 187.937 123.435 187.66 123.841 187.728L124.594 187.855L125.677 185.343L124.891 185.007C124.511 184.842 124.341 184.406 124.506 184.026C124.671 183.646 125.108 183.468 125.488 183.641L126.274 183.976L127.357 181.465L126.749 181.002C126.421 180.755 126.356 180.287 126.604 179.958C126.852 179.63 127.32 179.566 127.649 179.813L127.965 180.054L129.511 176.472C129.676 176.093 130.113 175.922 130.493 176.08C130.873 176.245 131.044 176.682 130.886 177.061L129.195 180.984L130.005 181.599C130.333 181.846 130.398 182.314 130.15 182.643C130.005 182.839 129.782 182.94 129.555 182.94C129.397 182.94 129.239 182.888 129.105 182.787L128.585 182.395L127.649 184.565L128.479 184.919C128.859 185.085 129.03 185.521 128.864 185.901C128.743 186.185 128.466 186.35 128.182 186.35C128.081 186.35 127.985 186.332 127.884 186.288L127.054 185.934L126.118 188.104L126.757 188.213C127.162 188.282 127.434 188.662 127.372 189.068C127.309 189.435 126.999 189.688 126.637 189.688C126.599 189.688 126.555 189.688 126.516 189.675L125.51 189.51L123.819 193.432C123.698 193.717 123.421 193.882 123.136 193.882C123.035 193.882 122.94 193.864 122.844 193.82C122.464 193.654 122.293 193.218 122.451 192.838L123.997 189.249V189.262L123.994 189.26Z" fill="#C4C3C7"/>
<path d="M88.4741 176.08C88.8541 175.915 89.2911 176.093 89.4564 176.472L91.0023 180.054L91.318 179.813C91.6467 179.566 92.1168 179.63 92.3628 179.958C92.6107 180.287 92.5463 180.756 92.2177 181.002L91.6099 181.465L92.6932 183.976L93.4717 183.641C93.8518 183.475 94.2887 183.653 94.4539 184.026C94.6191 184.406 94.441 184.842 94.0683 185.007L93.2826 185.343L94.3658 187.855L95.1186 187.728C95.5243 187.659 95.91 187.937 95.9742 188.343C96.044 188.748 95.7649 189.134 95.3591 189.198L94.9662 189.26L96.5121 192.849C96.6774 193.229 96.4993 193.665 96.1192 193.831C96.0238 193.875 95.9228 193.893 95.8273 193.893C95.5354 193.893 95.2637 193.722 95.1444 193.443L93.4533 189.521L92.4472 189.686C92.4032 189.691 92.3646 189.699 92.326 189.699C91.9644 189.699 91.6541 189.44 91.5917 189.079C91.5219 188.673 91.801 188.288 92.2068 188.224L92.8456 188.115L91.9093 185.945L91.0794 186.299C90.9839 186.343 90.8829 186.361 90.7819 186.361C90.49 186.361 90.2183 186.191 90.099 185.912C89.9337 185.532 90.1118 185.096 90.4845 184.93L91.3144 184.576L90.3781 182.406L89.8584 182.798C89.7262 182.899 89.5666 182.951 89.4087 182.951C89.1865 182.951 88.9588 182.85 88.8138 182.654C88.5659 182.325 88.6301 181.855 88.9588 181.61L89.7684 180.995L88.0775 177.072C87.9122 176.693 88.0903 176.256 88.4704 176.091L88.4759 176.078L88.4741 176.08Z" fill="#C4C3C7"/>
<path d="M0.0242675 247.219C1.07631 225.692 8.24974 203.841 20.7621 184.041L59.2063 123.198C58.8648 123.128 58.5158 123.058 58.167 122.989C57.5024 122.862 56.9443 122.407 56.6982 121.78C56.4522 121.152 56.5404 120.438 56.9388 119.894L68.7112 103.776C68.2688 100.75 67.8557 97.5174 67.4757 94.2075L57.306 113.21C56.9571 113.861 56.2797 114.248 55.5655 114.248C55.3874 114.248 55.2166 114.23 55.0404 114.178C54.1536 113.931 53.5513 113.109 53.5972 112.186L54.205 99.2016L42.2433 100.574C41.5273 100.657 40.8315 100.346 40.4128 99.7648C39.9942 99.1832 39.9318 98.4109 40.2421 97.765L46.5928 84.5973L29.6484 84.0029C28.7561 83.9717 27.996 83.3442 27.7995 82.4709C27.6031 81.5975 28.0088 80.7059 28.8057 80.2876L62.2907 62.6762L56.566 64.6503C55.8757 64.8851 55.1101 64.72 54.5722 64.2265C54.0397 63.7274 53.8249 62.9734 54.0213 62.2707C55.7747 55.8473 57.7576 50.2918 60.0435 45.406L57.8458 45.595C57.1169 45.6573 56.4155 45.3106 56.0227 44.696C55.6242 44.0813 55.604 43.2979 55.9602 42.6576L56.0299 42.5365C56.8286 41.1128 57.6071 39.7404 58.3727 38.3919C55.4406 37.1828 53.1988 34.6711 52.3689 31.4493C51.4436 27.8808 52.4442 24.2169 54.921 21.6593C52.8243 17.9697 52.9583 13.5095 55.3965 9.83823C58.0496 5.8459 62.647 4.02953 67.2444 5.11752C68.6434 2.22601 71.4231 0.29589 74.7481 0.0298561C78.7561 -0.285715 82.3602 1.92145 83.9245 5.64958L85.7238 9.93364C96.2863 4.70104 106.133 4.34694 108.571 4.34694C111.307 4.34694 116.91 4.66251 123.661 6.7761C126.371 7.62374 128.967 8.66769 131.431 9.90245L133.21 5.64958C134.771 1.93062 138.38 -0.278376 142.381 0.0371949C145.712 0.303228 148.491 2.23335 149.892 5.12486C154.484 4.04237 159.087 5.85324 161.734 9.84557C164.173 13.515 164.305 17.977 162.21 21.6666C164.692 24.2224 165.686 27.8808 164.768 31.4567C163.945 34.6326 161.753 37.1259 158.885 38.3533C159.684 39.7331 160.499 41.1751 161.349 42.6759C161.711 43.3144 161.685 44.0942 161.292 44.707C160.894 45.3271 160.19 45.6684 159.462 45.606L157.093 45.4042C159.373 50.2955 161.354 55.8455 163.115 62.2688C163.312 62.977 163.09 63.7366 162.552 64.2375C162.014 64.7384 161.235 64.8961 160.545 64.643L154.264 62.3771L188.333 80.2986C189.124 80.7169 189.535 81.6086 189.339 82.4819C189.142 83.3552 188.382 83.9808 187.49 84.0139L170.545 84.6083L176.896 97.7761C177.207 98.4219 177.144 99.187 176.726 99.7759C176.307 100.357 175.611 100.675 174.89 100.585L162.933 99.2126L163.541 112.197C163.585 113.114 162.983 113.944 162.091 114.189C161.913 114.241 161.742 114.259 161.566 114.259C160.85 114.259 160.179 113.866 159.825 113.221L149.795 94.4717C149.402 97.5981 148.985 100.66 148.548 103.533L160.51 119.905C160.908 120.449 160.998 121.163 160.75 121.791C160.503 122.424 159.946 122.879 159.282 123C158.832 123.088 158.395 123.178 157.965 123.266L196.371 184.052C208.878 203.854 216.053 225.703 217.105 247.224C217.257 250.356 216.282 253.261 214.496 255.881C214.801 257.139 214.971 258.444 214.971 259.785C214.971 264.867 212.546 270.226 208.323 274.479C203.985 278.846 198.42 281.484 192.644 281.908C191.017 282.029 189.458 282.091 187.971 282.091C179.65 282.091 173.45 280.218 169.106 276.422C166.541 274.182 164.687 271.278 163.56 267.746C161.641 266.872 159.906 265.816 158.367 264.594L159.058 274.415L161.47 288.102L161.925 288.66C163.705 290.804 163.965 293.823 162.667 296.259L162.864 297.424C162.877 297.463 162.895 297.499 162.908 297.545C162.908 297.545 162.908 297.551 162.913 297.564L168.271 314.826C168.84 316.661 168.074 318.573 166.51 319.534L176.788 381.749C176.889 382.357 176.7 382.984 176.268 383.426C175.844 383.876 175.236 384.098 174.621 384.028C156.992 382.059 138.369 383.826 119.277 389.281C119.099 389.332 118.915 389.356 118.739 389.356C118.333 389.356 117.929 389.229 117.593 388.989C117.105 388.641 116.802 388.09 116.771 387.49L113.934 332.975L112.972 331.526C112.972 331.526 112.946 331.482 112.933 331.464L112.698 331.109C110.989 328.528 111.343 325.123 113.414 322.939L110.387 264.9H108.29L105.263 322.939C107.334 325.123 107.688 328.526 105.979 331.109L105.782 331.401C105.782 331.401 105.764 331.44 105.751 331.458L104.745 332.977L101.901 387.492C101.87 388.086 101.565 388.644 101.078 388.991C100.742 389.239 100.337 389.358 99.9327 389.358C99.7546 389.358 99.571 389.332 99.3947 389.283C80.3021 383.828 61.6794 382.063 44.0501 384.03C43.435 384.092 42.8273 383.878 42.4031 383.428C41.9717 382.979 41.7826 382.358 41.8836 381.751L52.1927 319.327C50.6982 318.081 50.0262 316.037 50.6284 314.094L50.8175 313.487C50.8175 313.487 50.8175 313.456 50.8303 313.443L55.7564 297.565C55.7564 297.565 55.7619 297.552 55.7619 297.547C55.7748 297.503 55.7932 297.464 55.806 297.426L56.0025 296.255C54.7044 293.826 54.9706 290.806 56.7442 288.661L57.2069 288.104L59.6138 274.417L60.4052 263.159C58.5049 265.007 56.2191 266.544 53.5844 267.748C52.4571 271.279 50.6027 274.184 48.0378 276.424C43.6938 280.227 37.4936 282.093 29.1729 282.093C27.6838 282.093 26.1214 282.031 24.4928 281.91C18.7186 281.486 13.1518 278.848 8.8133 274.481C4.59047 270.228 2.1706 264.869 2.1706 259.787C2.1706 258.446 2.33596 257.148 2.6389 255.882C0.865317 253.263 -0.115171 250.358 0.0353914 247.226L0.022579 247.221L0.0242675 247.219ZM37.1944 80.3206L49.7454 80.7627C50.41 80.7884 51.0177 81.1425 51.3665 81.7113C51.708 82.2801 51.7465 82.9828 51.4546 83.5845L45.3443 96.2532L56.0521 95.0185C56.6212 94.9561 57.1976 95.1396 57.6217 95.5377C58.0458 95.9303 58.2736 96.4936 58.2478 97.0697L57.9376 103.664L66.7137 87.2686C66.2382 82.7186 65.8141 78.2253 65.434 74.1321C65.1807 71.4424 64.9401 68.905 64.7179 66.6905C64.6867 66.419 64.6611 66.1529 64.6354 65.8924L64.56 65.9364L37.198 80.3206H37.1924H37.1944ZM80.28 7.18891C79.1912 4.59462 76.8669 3.82955 75.0492 3.96715C73.2261 4.11209 71.0412 5.24595 70.3692 7.97967C70.2425 8.5044 69.9065 8.9484 69.4438 9.21994C68.9812 9.49147 68.4249 9.55569 67.9108 9.40891L66.6825 9.05481C62.9462 7.97967 60.0912 9.8841 58.6719 12.0234C57.216 14.2122 56.5569 17.6615 59.0649 20.775C59.4064 21.1988 59.5588 21.7437 59.4835 22.2813C59.4082 22.8188 59.1163 23.3069 58.6738 23.6169C56.0208 25.4957 55.6463 28.389 56.186 30.4641C56.6414 32.2364 57.9724 34.2106 60.3776 34.9445C64.4113 28.1413 68.3312 22.5546 73.7327 18.2522C76.4812 15.6579 79.3565 13.5572 82.2372 11.8362L80.2873 7.18524L80.2818 7.19074L80.28 7.18891ZM160.943 30.4751C161.481 28.3927 161.108 25.5012 158.455 23.6224C158.013 23.3069 157.714 22.8243 157.646 22.2868C157.576 21.7492 157.721 21.2043 158.064 20.7805C160.572 17.6615 159.913 14.2177 158.457 12.0289C157.033 9.88961 154.183 7.98517 150.441 9.06032L149.213 9.41442C148.701 9.55936 148.15 9.48964 147.68 9.22544C147.21 8.96124 146.881 8.5099 146.754 7.98517C146.09 5.24595 143.9 4.11943 142.075 3.97266C140.264 3.82771 137.927 4.59829 136.844 7.19441L134.899 11.8271C137.951 13.6618 140.795 15.8139 143.391 18.2687C148.671 22.4702 152.598 27.8423 156.854 34.9243C159.184 34.1647 160.49 32.2291 160.94 30.4824L160.945 30.4769L160.943 30.4751ZM159.188 103.669L158.878 97.0752C158.852 96.4991 159.074 95.9358 159.498 95.5432C159.922 95.1451 160.492 94.9616 161.068 95.024L171.77 96.2588L165.66 83.59C165.368 82.9883 165.401 82.2874 165.748 81.7168C166.09 81.148 166.705 80.7921 167.369 80.7683L179.92 80.3261L152.887 66.1144C152.639 68.3362 152.375 70.9232 152.088 73.6771C151.638 78.018 151.144 82.8085 150.599 87.6356L159.179 103.676L159.184 103.671L159.188 103.669ZM149.576 60.6653C148.164 60.0764 146.207 59.1205 144.415 57.8802C143.523 57.2601 143.301 56.0326 143.916 55.141C144.537 54.242 145.765 54.0218 146.657 54.6419C149.013 56.2675 151.736 57.3316 152.299 57.4839C152.325 57.4894 152.343 57.5023 152.362 57.5096C152.387 57.5151 152.419 57.5224 152.444 57.5353L158.239 59.6232C156.542 54.0732 154.611 49.1561 152.47 44.9418C149.044 44.373 145.625 42.7768 142.693 40.3532C141.851 39.6633 141.737 38.4176 142.427 37.5809C143.117 36.7461 144.364 36.6251 145.201 37.3222C148.925 40.3972 152.521 41.0742 154.332 41.2082H154.394L156.054 41.3604C150.906 32.363 146.72 25.9323 140.868 21.2942C140.824 21.2557 140.78 21.219 140.736 21.1804C135.606 16.3203 129.465 12.7389 122.468 10.5428C115.977 8.51724 110.581 8.29708 108.556 8.29708C106.656 8.29708 89.5848 8.65851 76.3748 21.1804C76.3307 21.2245 76.2921 21.2557 76.2426 21.2942C70.2333 26.0534 66.0546 32.8419 61.2222 41.3403L63.0215 41.188L63.1482 41.1696C63.2877 41.1568 63.4199 41.1641 63.5539 41.1696C65.3844 40.9862 68.6635 40.2523 72.0528 37.4488C72.8882 36.759 74.1294 36.8727 74.827 37.7075C75.5229 38.5497 75.4036 39.7899 74.5682 40.4798C71.5865 42.942 68.0962 44.5162 64.6133 45.0042C62.4798 49.2185 60.5484 54.1356 58.8629 59.6782L65.1696 57.5078C65.1696 57.5078 65.2082 57.5023 65.2266 57.4949C65.2449 57.4894 65.2651 57.4766 65.2889 57.4692C65.8471 57.317 68.5754 56.2547 70.931 54.6273C71.8233 54.0071 73.0516 54.2291 73.6721 55.1263C74.2927 56.018 74.0651 57.2454 73.1728 57.8655C71.3809 59.1058 69.4237 60.0617 68.0063 60.6561C68.3863 63.4651 68.8233 68.1289 69.3557 73.7486C70.0461 81.1022 70.9255 90.3913 71.9959 98.7063C72.8698 81.027 75.8075 55.6198 85.1491 42.6227C85.6613 41.92 86.5683 41.6301 87.3909 41.9072C88.2134 42.1861 88.7587 42.9695 88.7201 43.8373L88.3914 52.9045L97.4155 46.2848C98.2068 45.7032 99.3029 45.7913 99.9859 46.494L102.411 48.969L106.831 40.9385C107.167 40.3312 107.8 39.9385 108.496 39.9202H108.558C109.23 39.9202 109.862 40.2688 110.223 40.8376L115.283 48.8553L116.974 46.6664C117.634 45.8188 118.836 45.6482 119.705 46.2812L128.729 52.9008L128.4 43.8336C128.369 42.9658 128.912 42.1824 129.729 41.9035C130.552 41.6191 131.459 41.909 131.964 42.6191C141.425 55.7813 144.324 81.6691 145.154 99.3686C146.356 90.7436 147.37 80.9426 148.168 73.2478C148.726 67.8555 149.187 63.3825 149.567 60.6561L149.58 60.669L149.576 60.6653ZM87.8866 90.3748C83.9355 88.1346 80.3882 85.2743 77.3937 81.9278C76.8943 86.1109 76.5253 90.2243 76.2609 94.0956C77.8509 93.3672 81.7708 91.76 87.8866 90.3748ZM80.0781 96.7724C81.3321 98.1007 82.6173 99.1521 83.9227 99.9942L83.7005 95.5395C82.25 95.9762 81.0475 96.4 80.0781 96.7743V96.7724ZM108.56 91.8683C121.054 91.8683 132.147 85.8449 139.012 76.5925C137.688 67.7143 135.682 58.9132 132.636 51.9266L132.814 56.8564C132.845 57.6087 132.434 58.3187 131.769 58.6655C131.097 59.0196 130.287 58.9627 129.68 58.5132L118.928 50.6221L116.686 53.5264C116.293 54.0383 115.686 54.3172 115.034 54.2915C114.387 54.2603 113.798 53.9191 113.457 53.3741L108.67 45.7876L104.585 53.2109C104.28 53.7613 103.742 54.1282 103.122 54.2163C102.501 54.2988 101.881 54.0897 101.444 53.6402L98.3591 50.4955L87.4349 58.5132C86.8272 58.9627 86.0102 59.0196 85.3456 58.6655C84.6809 58.3114 84.2697 57.6087 84.3009 56.8564L84.4789 51.9266C81.4385 58.9132 79.4262 67.7143 78.1025 76.5925C84.9728 85.8504 96.0605 91.8738 108.555 91.8738L108.56 91.8683ZM89.1589 94.7286C90.6791 95.5634 93.0788 96.3413 96.2129 96.9247V93.9635C95.7759 93.8314 95.3389 93.6846 94.9093 93.5397C92.9852 93.8681 91.0647 94.2681 89.1589 94.7359V94.7286ZM100.158 94.9634V97.4953C102.666 97.7742 105.498 97.932 108.606 97.932C111.714 97.932 114.483 97.7742 116.978 97.5008V94.9579C114.261 95.5084 111.45 95.8001 108.569 95.8001C105.689 95.8001 102.876 95.5084 100.16 94.9579V94.9634H100.158ZM120.909 93.9635V96.9375C123.999 96.3688 126.386 95.6092 127.924 94.7927C125.962 94.3249 124.005 93.9195 122.055 93.5966C121.675 93.7232 121.289 93.8497 120.909 93.9635ZM140.85 93.9433C140.591 90.1216 140.229 86.0596 139.735 81.9333C136.754 85.2486 133.238 88.0906 129.325 90.3234C135.182 91.6389 139.065 93.1581 140.85 93.9488V93.9433ZM133.263 100.152C134.657 99.2787 136.017 98.1834 137.354 96.767C136.335 96.3817 135.043 95.9322 133.499 95.4698L133.263 100.152ZM147.632 108.96C146.916 112.87 146.132 116.167 145.289 118.433C144.997 119.218 144.25 119.717 143.441 119.717C143.314 119.717 143.187 119.705 143.06 119.679C142.117 119.495 141.439 118.653 141.465 117.686C141.465 117.49 141.661 110.232 141.199 100.158L140.483 99.1759C134.347 105.845 127.412 106.876 121.744 107.726C121.383 107.783 121.028 107.834 120.674 107.891L118.463 108.232C117.393 108.397 116.387 107.663 116.216 106.581C116.051 105.506 116.785 104.506 117.863 104.335L120.074 103.994C120.435 103.937 120.803 103.886 121.162 103.829C123.828 103.423 126.538 103.025 129.211 102.077L129.39 98.4311C122.918 101.664 111.323 101.867 108.588 101.867C107.22 101.867 103.636 101.816 99.5838 101.361C95.5318 100.912 91.017 100.051 87.7801 98.4311L87.9581 101.987C90.7066 102.992 93.4992 103.41 96.2477 103.821C96.6149 103.878 96.9767 103.93 97.3365 103.987L99.5471 104.328C100.623 104.493 101.357 105.498 101.194 106.574C101.029 107.649 100.022 108.383 98.9466 108.225L96.7361 107.883C96.3818 107.827 96.0274 107.775 95.6657 107.718C89.998 106.871 83.0653 105.832 76.9275 99.1686L75.8827 100.598C75.4458 110.437 75.6349 117.481 75.6349 117.677C75.6661 118.646 74.9886 119.486 74.0394 119.67C73.0957 119.853 72.152 119.328 71.816 118.424C70.9935 116.215 70.2517 113.021 69.5742 109.236L61.8923 119.752C72.5632 122.334 76.1086 126.53 78.7561 129.662C80.7573 132.028 81.9673 133.465 85.7605 133.63H86.001C89.5151 133.63 91.3768 132.579 93.7269 131.258C96.7783 129.537 100.579 127.392 108.716 127.353C116.828 127.398 120.628 129.537 123.68 131.258C126.079 132.612 127.972 133.669 131.646 133.63C135.432 133.465 136.649 132.028 138.65 129.662C141.298 126.53 144.843 122.328 155.514 119.752L147.625 108.944L147.638 108.957L147.632 108.96ZM74.2211 130.461C71.6874 136.105 69.1427 141.516 66.6347 146.844C57.0783 167.15 48.8273 184.69 46.7379 204.415C43.7489 232.695 71.3147 243.458 88.0059 247.362C102.734 250.811 117.845 250.887 131.694 247.597C144.751 244.496 174.798 234.075 171.658 204.415C169.574 184.723 161.476 167.548 152.105 147.673C149.477 142.097 146.672 136.156 143.848 129.816C143.013 130.638 142.328 131.449 141.676 132.214C139.447 134.852 137.338 137.345 131.804 137.586H131.747C127.01 137.655 124.331 136.156 121.754 134.707C118.821 133.056 115.796 131.348 108.727 131.309C101.635 131.348 98.6089 133.056 95.6767 134.707C93.1559 136.125 90.5598 137.593 86.0065 137.593H85.6264C80.0927 137.358 77.9831 134.865 75.7542 132.221C75.2787 131.658 74.7793 131.069 74.2156 130.469L74.2211 130.463V130.461ZM171.7 273.454C175.931 277.156 182.876 278.681 192.357 277.983C202.116 277.268 211.006 268.612 211.031 259.816C205.94 264.441 198.348 267.795 190.995 269.441C186.993 270.34 182.972 270.79 179.129 270.79C175.286 270.79 171.803 270.358 168.553 269.511C169.383 271.035 170.428 272.345 171.7 273.459V273.454ZM190.128 265.595C201.888 262.957 213.578 255.87 213.165 247.41C212.146 226.56 205.18 205.373 193.027 186.143L153.937 124.275C150.955 125.174 148.745 126.21 147.028 127.3C149.909 133.806 152.815 139.951 155.665 146C165.195 166.205 173.426 183.65 175.574 204.008C176.867 216.188 173.136 226.707 164.487 235.268C164.094 235.66 163.682 236.046 163.264 236.425L162.91 243.937C162.687 248.601 159.845 252.727 155.621 254.611L155.646 254.75C160.662 266.463 176.544 268.641 190.132 265.597H190.127L190.128 265.595ZM117.375 323.938C117.375 323.982 117.369 324.026 117.356 324.07C117.351 324.114 117.338 324.152 117.325 324.196C117.268 324.444 117.16 324.684 117.009 324.899C117.009 324.904 117.004 324.917 116.991 324.925C116.952 324.981 116.916 325.033 116.864 325.082C116.813 325.139 116.763 325.196 116.706 325.247C115.592 326.26 115.39 327.981 116.207 329.291L121.317 337.012C121.919 337.916 121.671 339.138 120.758 339.74C120.422 339.962 120.042 340.068 119.67 340.068C119.119 340.068 118.574 339.833 118.188 339.397L120.557 384.832C134.147 381.162 147.494 379.313 160.438 379.313C164.485 379.313 168.493 379.491 172.457 379.85L162.75 321.057C157.703 323.189 153.663 325.91 150.46 329.341C150.074 329.759 149.547 329.966 149.022 329.966C148.541 329.966 148.06 329.788 147.68 329.434C146.881 328.693 146.844 327.442 147.584 326.649C151.67 322.277 156.911 318.954 163.592 316.487C163.605 316.487 163.618 316.474 163.631 316.468C164.143 316.285 164.422 315.747 164.27 315.254L159.484 299.833C158.819 300.492 158.268 300.96 157.635 301.492C157.381 301.701 157.11 301.928 156.812 302.194C156.44 302.517 155.977 302.675 155.52 302.675C154.969 302.675 154.418 302.44 154.031 301.992C153.315 301.171 153.41 299.93 154.227 299.215C154.543 298.943 154.822 298.708 155.088 298.486C156.081 297.652 156.741 297.094 158.033 295.613C159.375 294.068 159.406 291.792 158.096 290.215C158.09 290.203 158.083 290.19 158.077 290.184C158.015 290.109 157.963 290.019 157.912 289.931C157.894 289.9 157.873 289.869 157.855 289.836C157.811 289.74 157.767 289.647 157.734 289.538C157.728 289.52 157.721 289.494 157.715 289.476C157.697 289.419 157.684 289.362 157.671 289.298L155.151 274.997C155.138 274.934 155.132 274.864 155.125 274.795L154.086 260.051C153.23 258.816 152.503 257.495 151.914 256.077L151.895 256.02C141.878 259.539 126.002 263.772 114.312 264.707L117.377 323.633V323.659C117.377 323.754 117.376 323.848 117.364 323.943L117.377 323.938H117.375ZM109.219 260.944C109.472 260.944 109.726 260.95 109.985 260.95C122.427 260.95 143.211 255.185 153.596 251.186C156.698 249.989 158.808 247.067 158.971 243.739L159.16 239.783C152.138 244.953 143.095 248.94 132.608 251.433C125.547 253.11 118.177 253.952 110.704 253.952C103.232 253.952 94.9497 253.035 87.1172 251.206C75.9525 248.599 66.4419 244.537 59.1971 239.328L59.4063 243.751C59.5642 247.08 61.6739 250.01 64.7823 251.206C75.3834 255.281 96.8059 261.198 109.153 260.957L109.14 260.944H109.219ZM60.6181 295.608C61.9034 297.088 62.5625 297.639 63.5558 298.481C63.822 298.703 64.1066 298.943 64.4169 299.209C65.2394 299.925 65.3293 301.165 64.6133 301.987C64.2203 302.437 63.677 302.67 63.1243 302.67C62.669 302.67 62.2063 302.512 61.8318 302.189C61.5343 301.93 61.2625 301.701 61.0092 301.486C60.3758 300.949 59.825 300.481 59.1603 299.828L54.5685 314.615C54.3151 315.463 54.7521 316.362 55.5692 316.672C62.0025 319.114 67.0626 322.374 71.0522 326.638C71.794 327.429 71.7554 328.677 70.9567 329.423C70.5766 329.777 70.0956 329.955 69.6146 329.955C69.0895 329.955 68.5626 329.746 68.177 329.33C64.9658 325.893 60.9321 323.18 55.8868 321.046L46.1798 379.839C62.8086 378.32 80.2487 379.997 98.08 384.813L100.449 339.378C100.068 339.815 99.5177 340.05 98.9669 340.05C98.5941 340.05 98.2141 339.942 97.8781 339.722C96.9656 339.12 96.7251 337.9 97.32 336.993L102.474 329.216C103.283 327.932 103.068 326.268 101.941 325.242L101.91 325.211C101.848 325.154 101.796 325.097 101.739 325.033C101.734 325.027 101.721 325.014 101.714 325.002C101.398 324.622 101.232 324.141 101.258 323.635L104.33 264.704C92.1534 263.786 75.3154 259.198 65.322 255.591L65.3092 255.642L65.2707 255.851L65.1953 256.048C65.0557 256.371 64.9107 256.686 64.7638 257.004L63.5099 274.773C63.5099 274.842 63.497 274.912 63.4842 274.975L60.9633 289.276C60.9578 289.339 60.9377 289.397 60.9193 289.454C60.9193 289.472 60.9138 289.498 60.9009 289.511C60.8697 289.612 60.8256 289.713 60.7797 289.815C60.7614 289.847 60.7485 289.872 60.7283 289.904C60.6714 289.992 60.62 290.082 60.5502 290.162C60.5447 290.168 60.5373 290.181 60.5318 290.188C59.2283 291.769 59.2467 294.041 60.5943 295.586L60.6126 295.611L60.6181 295.608ZM24.7701 277.978C34.2495 278.668 41.1968 277.149 45.4196 273.448C46.6993 272.334 47.7441 271.024 48.5666 269.5C45.3187 270.347 41.7403 270.779 37.9912 270.779C34.2421 270.779 30.1331 270.329 26.1251 269.43C18.7737 267.784 11.1799 264.43 6.08862 259.805C6.10697 268.601 14.9989 277.257 24.7572 277.972L24.7701 277.978ZM26.9935 265.595C40.5836 268.645 56.4651 266.463 61.4793 254.749L61.6059 254.033C58.0147 251.951 55.6591 248.168 55.4571 243.933L55.0845 236.024C54.8256 235.789 54.5593 235.561 54.3114 235.334C45.3756 226.905 41.5071 216.368 42.818 204.011C44.9716 183.622 53.3549 165.809 63.0619 145.174C65.7149 139.523 68.4193 133.777 71.1036 127.772C69.2474 126.48 66.7725 125.247 63.2327 124.203L24.0926 186.147C11.94 205.376 4.97603 226.564 3.9552 247.413C3.53659 255.868 15.2265 262.961 26.9917 265.599V265.594L26.9935 265.595Z" fill="black"/>
<path d="M133.269 100.152C134.663 99.2786 136.023 98.1833 137.36 96.7669C136.341 96.3816 135.048 95.9321 133.504 95.4698L133.269 100.152Z" fill="black"/>
<path d="M80.0781 96.7724C81.3321 98.1007 82.6173 99.1521 83.9227 99.9942L83.7005 95.5395C82.25 95.9762 81.0475 96.4 80.0781 96.7743V96.7724Z" fill="black"/>
</svg>
